<svg xmlns="http://www.w3.org/2000/svg" xmlns:xlink="http://www.w3.org/1999/xlink" viewBox="0,0,256,256" width="current" height="current"><g fill="#183a1d" fill-rule="nonzero" stroke="none" stroke-width="1" stroke-linecap="butt" stroke-linejoin="miter" stroke-miterlimit="10" stroke-dasharray="" stroke-dashoffset="0" font-family="none" font-weight="none" font-size="none" text-anchor="none" style="mix-blend-mode: normal"><g transform="scale(5.33333,5.33333)"><path d="M8.5,8c-2.4675,0 -4.5,2.0325 -4.5,4.5v23c0,2.4675 2.0325,4.5 4.5,4.5h31c2.4675,0 4.5,-2.0325 4.5,-4.5v-18c0,-2.4675 -2.0325,-4.5 -4.5,-4.5h-15.45703l-4.4707,-3.72461c-0.98821,-0.82328 -2.2331,-1.27539 -3.51953,-1.27539zM8.5,11h7.55273c0.58557,0 1.14982,0.20536 1.59961,0.58008l3.50391,2.91992l-3.50391,2.91992c-0.44979,0.37472 -1.01404,0.58008 -1.59961,0.58008h-9.05273v-5.5c0,-0.8465 0.6535,-1.5 1.5,-1.5zM24.04297,16h15.45703c0.8465,0 1.5,0.6535 1.5,1.5v18c0,0.8465 -0.6535,1.5 -1.5,1.5h-31c-0.8465,0 -1.5,-0.6535 -1.5,-1.5v-14.5h9.05273c1.28643,0 2.53132,-0.45211 3.51953,-1.27539z"></path></g></g></svg>