<svg width="624" height="668" viewBox="0 0 624 668" fill="none" xmlns="http://www.w3.org/2000/svg">
<g id="picture3">
<rect x="1.5" y="1.5" width="621" height="665" fill="white"/>
<rect x="1.5" y="1.5" width="621" height="665" stroke="black" stroke-width="3"/>
<g id="figure_group">
<path id="Vector" d="M368.3 517.304L301.437 524.296C299.914 524.455 298.809 525.818 298.969 527.34L299.703 534.359C299.862 535.881 301.225 536.986 302.747 536.827L369.611 529.835C371.133 529.676 372.238 528.313 372.079 526.79L371.345 519.772C371.186 518.249 369.823 517.144 368.3 517.304Z" fill="black"/>
<path id="Vector_2" d="M372.594 480.849L325.613 480.543L261.767 511.998C259.707 513.013 258.131 514.801 257.381 516.972C256.632 519.143 256.771 521.522 257.766 523.592L374.271 506.299L372.594 480.849Z" fill="black"/>
<path id="Vector_3" d="M373.117 506.768L259.254 524.095C260.034 525.736 261.314 527.089 262.91 527.958C264.505 528.828 266.335 529.171 268.138 528.938L366.026 516.297C368.095 516.029 369.986 514.984 371.313 513.373C372.64 511.762 373.304 509.707 373.171 507.624L373.117 506.768Z" fill="white"/>
<path id="Vector_4" d="M267.017 530.37C265.132 530.37 263.287 529.834 261.695 528.825C260.103 527.816 258.83 526.376 258.024 524.672L257.237 523.021L374.407 505.205L374.557 507.535C374.706 509.962 373.929 512.355 372.382 514.231C370.835 516.107 368.634 517.326 366.223 517.642L268.308 530.262C267.88 530.325 267.449 530.361 267.017 530.37ZM261.522 525.12C262.307 526.034 263.306 526.738 264.43 527.169C265.554 527.601 266.767 527.746 267.961 527.592L365.849 514.952C367.468 514.739 368.957 513.957 370.052 512.746C371.147 511.535 371.776 509.975 371.826 508.343L261.522 525.12Z" fill="black"/>
<path id="Vector_5" d="M318.793 502.665C318.605 502.665 318.42 502.625 318.248 502.549C318.076 502.473 317.922 502.362 317.795 502.224L307.471 491.03C307.35 490.899 307.256 490.745 307.194 490.577C307.133 490.409 307.105 490.231 307.113 490.052C307.12 489.874 307.163 489.698 307.238 489.536C307.314 489.374 307.42 489.229 307.552 489.108C307.816 488.865 308.166 488.736 308.525 488.75C308.884 488.764 309.223 488.92 309.468 489.183L319.792 500.376C319.913 500.507 320.008 500.661 320.07 500.829C320.132 500.996 320.16 501.174 320.153 501.353C320.146 501.531 320.104 501.707 320.029 501.869C319.954 502.031 319.848 502.177 319.717 502.298C319.466 502.533 319.136 502.664 318.793 502.665Z" fill="white"/>
<path id="Vector_6" d="M308.279 508.792C308.092 508.792 307.906 508.754 307.734 508.679C307.563 508.604 307.408 508.495 307.281 508.357L296.977 497.157C296.85 497.027 296.751 496.873 296.685 496.704C296.619 496.535 296.587 496.354 296.592 496.173C296.597 495.991 296.638 495.813 296.713 495.647C296.788 495.482 296.896 495.333 297.029 495.21C297.163 495.087 297.32 494.992 297.49 494.931C297.661 494.869 297.843 494.843 298.024 494.853C298.205 494.863 298.383 494.909 298.546 494.988C298.709 495.068 298.855 495.18 298.974 495.316L309.278 506.49C309.399 506.621 309.493 506.775 309.554 506.943C309.616 507.111 309.643 507.289 309.636 507.468C309.628 507.646 309.585 507.821 309.51 507.983C309.435 508.145 309.328 508.291 309.196 508.412C308.949 508.65 308.622 508.786 308.279 508.792Z" fill="white"/>
<path id="Vector_7" d="M363.302 485.345H334.775C330.558 485.345 326.514 483.67 323.532 480.688C320.55 477.706 318.875 473.662 318.875 469.445V307.582H379.203V469.445C379.201 473.661 377.525 477.705 374.544 480.686C371.562 483.668 367.519 485.343 363.302 485.345Z" fill="#C7B8F8"/>
<path id="Vector_8" d="M534.796 565.812H407.94C407.58 565.812 407.234 565.669 406.979 565.414C406.725 565.159 406.582 564.814 406.582 564.453C406.582 564.093 406.725 563.748 406.979 563.493C407.234 563.238 407.58 563.095 407.94 563.095H534.796C535.157 563.095 535.502 563.238 535.757 563.493C536.012 563.748 536.155 564.093 536.155 564.453C536.155 564.814 536.012 565.159 535.757 565.414C535.502 565.669 535.157 565.812 534.796 565.812Z" fill="black"/>
<path id="Vector_9" d="M166.093 565.615H116.11C115.75 565.615 115.404 565.472 115.15 565.217C114.895 564.962 114.752 564.617 114.752 564.256C114.752 563.896 114.895 563.551 115.15 563.296C115.404 563.041 115.75 562.898 116.11 562.898H166.093C166.454 562.898 166.799 563.041 167.054 563.296C167.309 563.551 167.452 563.896 167.452 564.256C167.452 564.617 167.309 564.962 167.054 565.217C166.799 565.472 166.454 565.615 166.093 565.615Z" fill="black"/>
<path id="Vector_10" d="M505.495 542.821H451.695C451.335 542.821 450.989 542.678 450.734 542.423C450.48 542.168 450.336 541.823 450.336 541.462C450.336 541.102 450.48 540.757 450.734 540.502C450.989 540.247 451.335 540.104 451.695 540.104H505.495C505.856 540.104 506.201 540.247 506.456 540.502C506.711 540.757 506.854 541.102 506.854 541.462C506.854 541.823 506.711 542.168 506.456 542.423C506.201 542.678 505.856 542.821 505.495 542.821Z" fill="black"/>
<path id="Vector_11" d="M465.625 414.388C465.344 414.388 465.07 414.3 464.841 414.138C464.611 413.975 464.438 413.745 464.345 413.48C464.252 413.214 464.243 412.926 464.32 412.656C464.398 412.386 464.557 412.146 464.776 411.97L499.505 384.122C499.643 384.004 499.804 383.915 499.977 383.86C500.151 383.805 500.333 383.786 500.515 383.803C500.696 383.82 500.872 383.873 501.032 383.96C501.192 384.046 501.333 384.164 501.447 384.306C501.561 384.448 501.645 384.611 501.694 384.786C501.743 384.962 501.757 385.145 501.734 385.325C501.712 385.506 501.653 385.68 501.561 385.837C501.47 385.995 501.348 386.132 501.203 386.241L466.474 414.089C466.234 414.282 465.934 414.388 465.625 414.388Z" fill="black"/>
<path id="Vector_12" d="M406.629 184.896H365.89C362.165 184.896 359.146 187.916 359.146 191.641V217.546C359.146 221.271 362.165 224.29 365.89 224.29H406.629C410.354 224.29 413.374 221.271 413.374 217.546V191.641C413.374 187.916 410.354 184.896 406.629 184.896Z" fill="white"/>
<path id="Vector_13" d="M406.622 225.649H365.87C363.721 225.647 361.661 224.793 360.142 223.274C358.623 221.754 357.768 219.694 357.767 217.546V191.641C357.768 189.492 358.623 187.432 360.142 185.913C361.661 184.394 363.721 183.54 365.87 183.538H406.622C408.769 183.548 410.824 184.405 412.343 185.922C413.861 187.44 414.72 189.494 414.732 191.641V217.546C414.72 219.692 413.861 221.747 412.343 223.264C410.824 224.781 408.769 225.638 406.622 225.649ZM365.87 186.255C364.442 186.256 363.073 186.824 362.063 187.834C361.053 188.844 360.485 190.213 360.483 191.641V217.546C360.485 218.974 361.053 220.343 362.063 221.352C363.073 222.362 364.442 222.93 365.87 222.932H406.622C408.051 222.932 409.422 222.365 410.433 221.355C411.444 220.345 412.013 218.975 412.015 217.546V191.641C412.013 190.212 411.444 188.842 410.433 187.832C409.422 186.822 408.051 186.255 406.622 186.255H365.87Z" fill="black"/>
<path id="Vector_14" d="M422.115 159.716L401.746 194.997C399.883 198.223 400.988 202.348 404.214 204.211L426.649 217.163C429.875 219.026 434 217.92 435.862 214.695L456.232 179.413C458.094 176.188 456.989 172.063 453.763 170.2L431.328 157.248C428.103 155.385 423.978 156.49 422.115 159.716Z" fill="white"/>
<path id="Vector_15" d="M430.007 219.421C428.59 219.42 427.199 219.045 425.973 218.334L403.559 205.381C402.637 204.85 401.829 204.141 401.18 203.297C400.532 202.453 400.057 201.489 399.781 200.461C399.505 199.433 399.435 198.36 399.574 197.305C399.713 196.25 400.058 195.232 400.591 194.31L420.967 159.039C421.498 158.115 422.205 157.306 423.049 156.657C423.894 156.007 424.858 155.531 425.886 155.256C426.915 154.98 427.988 154.91 429.043 155.05C430.099 155.19 431.117 155.537 432.038 156.071L454.452 169.016C456.313 170.093 457.671 171.864 458.228 173.941C458.784 176.018 458.494 178.231 457.42 180.094L437.044 215.366C436.331 216.601 435.305 217.626 434.07 218.338C432.834 219.049 431.433 219.423 430.007 219.421ZM427.331 215.984C428.569 216.695 430.039 216.887 431.418 216.516C432.797 216.146 433.972 215.244 434.687 214.007L455.063 178.736C455.778 177.498 455.971 176.028 455.602 174.647C455.233 173.267 454.331 172.089 453.094 171.373L430.68 158.421C430.066 158.066 429.389 157.836 428.686 157.744C427.984 157.651 427.27 157.698 426.585 157.882C425.901 158.065 425.26 158.382 424.698 158.814C424.136 159.245 423.664 159.783 423.31 160.397L402.934 195.669C402.579 196.281 402.347 196.958 402.254 197.66C402.161 198.362 402.207 199.075 402.39 199.759C402.573 200.443 402.889 201.084 403.321 201.646C403.752 202.207 404.29 202.678 404.904 203.031L427.331 215.984Z" fill="black"/>
<path id="Vector_16" d="M431.842 186.581C431.538 186.581 431.243 186.479 431.004 186.292C430.765 186.104 430.596 185.842 430.523 185.548C430.451 185.253 430.479 184.942 430.603 184.666C430.728 184.389 430.941 184.161 431.21 184.02L455.492 171.285C455.811 171.117 456.185 171.084 456.529 171.191C456.874 171.299 457.161 171.539 457.329 171.859C457.496 172.179 457.53 172.552 457.422 172.896C457.315 173.241 457.075 173.529 456.755 173.696L432.473 186.425C432.278 186.527 432.062 186.581 431.842 186.581Z" fill="black"/>
<path id="Vector_17" d="M417.889 181.886L387.486 209.003C384.706 211.482 384.463 215.746 386.942 218.525L404.185 237.858C406.665 240.638 410.928 240.882 413.708 238.402L444.111 211.285C446.891 208.806 447.135 204.543 444.655 201.763L427.412 182.43C424.933 179.65 420.669 179.406 417.889 181.886Z" fill="white"/>
<path id="Vector_18" d="M409.231 241.495C409.074 241.495 408.918 241.495 408.762 241.495C407.697 241.436 406.654 241.165 405.694 240.698C404.734 240.232 403.877 239.579 403.172 238.778L385.954 219.455C385.247 218.659 384.703 217.731 384.354 216.725C384.006 215.719 383.859 214.654 383.922 213.592C383.985 212.529 384.257 211.489 384.722 210.531C385.187 209.573 385.837 208.717 386.633 208.01L417.035 180.896C418.644 179.471 420.752 178.742 422.898 178.869C425.043 178.996 427.05 179.97 428.479 181.575L445.718 200.905C446.425 201.701 446.969 202.629 447.317 203.635C447.666 204.641 447.813 205.706 447.75 206.769C447.687 207.831 447.415 208.871 446.95 209.829C446.485 210.787 445.835 211.644 445.039 212.35L414.617 239.437C413.138 240.766 411.219 241.499 409.231 241.495ZM422.373 181.561C421.053 181.556 419.778 182.04 418.794 182.92L388.392 210.027C387.325 210.979 386.68 212.316 386.598 213.744C386.517 215.172 387.006 216.574 387.958 217.641L405.203 236.972C405.674 237.5 406.244 237.93 406.881 238.238C407.518 238.546 408.21 238.725 408.916 238.765C409.623 238.805 410.33 238.706 410.998 238.473C411.666 238.24 412.282 237.877 412.81 237.406L443.212 210.292C443.74 209.821 444.17 209.251 444.478 208.614C444.786 207.977 444.965 207.285 445.005 206.579C445.045 205.872 444.946 205.165 444.713 204.497C444.48 203.828 444.117 203.213 443.646 202.685L426.401 183.355C425.932 182.826 425.363 182.395 424.726 182.087C424.09 181.779 423.399 181.601 422.693 181.561H422.373Z" fill="black"/>
<path id="Vector_19" d="M404.415 472.936H404.293L293.269 463.651L292.95 463.393L145.982 347.635C145.736 347.447 145.557 347.186 145.468 346.889C145.379 346.593 145.386 346.276 145.488 345.984C145.589 345.691 145.78 345.438 146.033 345.261C146.286 345.083 146.589 344.989 146.899 344.993H360.891L413.122 461.777C413.269 462.106 413.279 462.481 413.15 462.818C413.021 463.155 412.763 463.426 412.433 463.573C412.27 463.646 412.094 463.686 411.915 463.69C411.737 463.695 411.559 463.665 411.392 463.601C411.055 463.471 410.783 463.214 410.637 462.884L359.125 347.71H150.458L294.315 460.982L404.524 470.199C404.884 470.213 405.224 470.37 405.468 470.635C405.713 470.9 405.842 471.251 405.828 471.612C405.813 471.972 405.656 472.312 405.391 472.556C405.126 472.801 404.775 472.93 404.415 472.916V472.936Z" fill="black"/>
<path id="Vector_20" d="M293.791 463.699C293.553 463.701 293.319 463.64 293.112 463.522C292.957 463.434 292.82 463.316 292.71 463.175C292.601 463.034 292.52 462.873 292.473 462.701C292.425 462.529 292.412 462.349 292.435 462.172C292.457 461.994 292.514 461.823 292.602 461.668L373.048 320.698C373.228 320.385 373.525 320.157 373.874 320.063C374.222 319.97 374.593 320.018 374.906 320.198C375.218 320.379 375.447 320.675 375.54 321.024C375.634 321.372 375.585 321.743 375.405 322.056L294.973 463.02C294.853 463.227 294.681 463.399 294.473 463.518C294.266 463.638 294.03 463.7 293.791 463.699Z" fill="black"/>
<path id="Vector_21" d="M301.406 464.542L256.877 479.484L206.744 529.97C205.43 531.29 204.574 532.996 204.301 534.839C204.029 536.681 204.354 538.562 205.229 540.206C205.629 540.954 206.135 541.64 206.73 542.243L311.288 488.029L301.406 464.542Z" fill="black"/>
<path id="Vector_22" d="M249.222 511.923C248.996 511.923 248.775 511.867 248.576 511.76L235.169 504.547C235.012 504.462 234.873 504.347 234.76 504.209C234.648 504.071 234.564 503.911 234.512 503.74C234.461 503.57 234.444 503.39 234.463 503.213C234.481 503.035 234.534 502.863 234.619 502.706C234.703 502.549 234.818 502.41 234.957 502.298C235.095 502.185 235.254 502.101 235.425 502.05C235.596 501.999 235.775 501.982 235.953 502C236.13 502.018 236.302 502.071 236.459 502.156L249.86 509.39C250.126 509.533 250.337 509.762 250.458 510.038C250.58 510.315 250.606 510.625 250.532 510.918C250.458 511.211 250.288 511.471 250.05 511.657C249.811 511.843 249.517 511.944 249.215 511.944L249.222 511.923Z" fill="white"/>
<path id="Vector_23" d="M477.24 302.78H380.167V213.804C380.176 211.655 381.033 209.597 382.552 208.077C384.071 206.557 386.128 205.698 388.277 205.687H469.103C470.169 205.687 471.224 205.897 472.208 206.305C473.193 206.713 474.087 207.311 474.84 208.065C475.593 208.819 476.191 209.713 476.598 210.698C477.005 211.683 477.214 212.738 477.213 213.804L477.24 302.78Z" fill="#C7B8F8"/>
<path id="Vector_24" d="M292.222 153.639H252.828C249.836 153.639 246.966 152.45 244.851 150.335C242.735 148.219 241.546 145.349 241.546 142.357V126.47C241.546 123.522 242.718 120.693 244.803 118.608C246.888 116.523 249.716 115.352 252.665 115.352H291.971C293.698 115.351 295.409 115.69 297.005 116.351C298.601 117.011 300.052 117.98 301.274 119.201C302.495 120.422 303.465 121.872 304.126 123.468C304.787 125.063 305.127 126.774 305.127 128.501V140.727C305.128 142.422 304.795 144.101 304.147 145.668C303.499 147.234 302.548 148.658 301.35 149.857C300.152 151.056 298.729 152.007 297.162 152.656C295.596 153.305 293.918 153.639 292.222 153.639Z" fill="black"/>
<path id="Vector_25" d="M309.902 499.007L248.942 527.355C247.554 528 246.953 529.648 247.598 531.036L250.574 537.435C251.219 538.823 252.867 539.425 254.255 538.779L315.214 510.431C316.602 509.786 317.204 508.138 316.559 506.75L313.583 500.351C312.937 498.963 311.289 498.361 309.902 499.007Z" fill="black"/>
<path id="Vector_26" d="M310.324 488.884L208.272 542.27C209.544 543.569 211.194 544.433 212.986 544.738C214.778 545.043 216.62 544.774 218.25 543.968L306.71 500.2C308.583 499.275 310.032 497.672 310.765 495.717C311.498 493.761 311.459 491.6 310.657 489.672L310.324 488.884Z" fill="white"/>
<path id="Vector_27" d="M214.419 546.223C213.096 546.221 211.786 545.955 210.567 545.439C209.348 544.924 208.244 544.17 207.321 543.221L206.038 541.917L311.01 486.996L311.906 489.149C312.837 491.395 312.881 493.91 312.028 496.187C311.176 498.464 309.492 500.333 307.315 501.416L218.868 545.204C217.484 545.884 215.961 546.232 214.419 546.223ZM210.751 542.508C211.79 543.117 212.965 543.457 214.168 543.499C215.372 543.54 216.567 543.281 217.645 542.746L306.113 499.018C307.573 498.288 308.727 497.063 309.369 495.562C310.01 494.06 310.099 492.38 309.617 490.82L210.751 542.508Z" fill="black"/>
<path id="Vector_28" d="M257.175 502.726C256.949 502.729 256.727 502.673 256.53 502.563L243.129 495.33C242.812 495.159 242.576 494.869 242.473 494.523C242.369 494.178 242.408 493.806 242.579 493.489C242.75 493.172 243.04 492.936 243.385 492.833C243.73 492.73 244.102 492.768 244.419 492.939L257.82 500.173C258.089 500.318 258.301 500.549 258.423 500.829C258.544 501.109 258.567 501.422 258.489 501.718C258.41 502.013 258.235 502.273 257.99 502.456C257.746 502.639 257.446 502.734 257.141 502.726H257.175Z" fill="white"/>
<path id="Vector_29" d="M291.951 472.936L264.939 482.092C262.961 482.763 260.87 483.037 258.786 482.9C256.702 482.762 254.666 482.216 252.793 481.291C250.92 480.366 249.248 479.082 247.872 477.511C246.496 475.94 245.443 474.113 244.773 472.135L205.521 356.295C202.954 348.719 203.503 340.433 207.045 333.26C210.587 326.088 216.834 320.616 224.41 318.049C231.987 315.482 240.272 316.03 247.445 319.573C254.617 323.115 260.089 329.361 262.656 336.938L301.908 452.771C302.579 454.749 302.853 456.839 302.716 458.923C302.578 461.007 302.031 463.044 301.107 464.916C300.182 466.789 298.898 468.461 297.327 469.837C295.756 471.213 293.929 472.266 291.951 472.936Z" fill="#C7B8F8"/>
<path id="Vector_30" d="M379.997 302.882L256.224 369.907C238.218 380.346 216.511 376.55 207.749 361.43C198.98 346.311 206.479 325.595 224.484 315.156L347.272 243.974L379.997 302.882Z" fill="#C7B8F8"/>
<path id="Vector_31" d="M262.561 365.288C262.26 365.287 261.967 365.185 261.73 364.998C261.492 364.812 261.323 364.552 261.25 364.259C261.177 363.966 261.203 363.658 261.325 363.381C261.447 363.105 261.657 362.878 261.923 362.734L273.605 356.492C273.763 356.394 273.94 356.328 274.124 356.301C274.308 356.273 274.496 356.283 274.676 356.331C274.856 356.379 275.024 356.464 275.17 356.58C275.316 356.695 275.437 356.84 275.524 357.004C275.612 357.168 275.665 357.349 275.68 357.534C275.695 357.72 275.672 357.907 275.612 358.083C275.551 358.259 275.456 358.421 275.33 358.559C275.205 358.697 275.052 358.807 274.882 358.883L263.2 365.125C263.004 365.231 262.784 365.287 262.561 365.288Z" fill="black"/>
<path id="Vector_32" d="M318.881 336.89C318.58 336.889 318.287 336.787 318.05 336.601C317.812 336.414 317.644 336.154 317.57 335.861C317.497 335.569 317.524 335.26 317.645 334.984C317.767 334.708 317.977 334.48 318.243 334.337L348.4 318.219C348.558 318.124 348.733 318.062 348.915 318.037C349.097 318.012 349.283 318.025 349.46 318.073C349.637 318.122 349.803 318.206 349.947 318.321C350.091 318.436 350.21 318.579 350.297 318.741C350.384 318.903 350.437 319.081 350.453 319.264C350.469 319.447 350.448 319.632 350.391 319.806C350.333 319.981 350.241 320.143 350.12 320.281C349.998 320.419 349.85 320.531 349.684 320.61L319.52 336.727C319.324 336.833 319.104 336.889 318.881 336.89Z" fill="black"/>
<path id="Vector_33" d="M408.66 566.695C407.104 566.696 405.549 566.619 404 566.464C386.341 564.719 370.821 553.206 360.239 534.066C349.813 515.204 345.425 491.112 347.897 466.226C350.37 441.34 359.39 418.579 373.313 402.136C387.455 385.441 404.944 377.215 422.59 378.961C440.236 380.706 455.77 392.212 466.352 411.359C476.778 430.214 481.159 454.306 478.693 479.192C476.228 504.078 467.201 526.839 453.277 543.283C440.386 558.511 424.703 566.695 408.66 566.695ZM417.965 383.484C386.123 383.484 357.291 419.646 352.625 466.695C350.254 490.63 354.431 513.737 364.395 531.763C374.203 549.497 388.433 560.141 404.469 561.73C437.934 565.051 469.096 527.81 473.966 478.724C478.836 429.637 455.573 387.03 422.122 383.688C420.731 383.552 419.346 383.484 417.965 383.484Z" fill="#6DC8C2"/>
<path id="Vector_34" d="M411.879 478.139C415.511 478.139 418.454 474.599 418.454 470.233C418.454 465.866 415.511 462.327 411.879 462.327C408.248 462.327 405.305 465.866 405.305 470.233C405.305 474.599 408.248 478.139 411.879 478.139Z" fill="black"/>
<path id="Vector_35" d="M118.44 566.695C116.884 566.696 115.329 566.619 113.78 566.464C96.1209 564.719 80.5941 553.206 70.0119 534.066C59.586 515.204 55.2051 491.112 57.6707 466.226C60.1362 441.34 69.1629 418.579 83.0868 402.136C97.228 385.441 114.731 377.215 132.364 378.961C149.996 380.706 165.543 392.212 176.125 411.359C186.551 430.214 190.939 454.306 188.473 479.192C186.008 504.078 176.974 526.866 163.05 543.283C150.159 558.511 134.476 566.695 118.44 566.695ZM127.745 383.484C95.8967 383.484 67.0642 419.646 62.4048 466.695C60.0275 490.63 64.2115 513.737 74.1755 531.763C83.9766 549.497 98.2128 560.141 114.249 561.73C115.628 561.871 117.013 561.941 118.399 561.941C150.24 561.941 179.073 525.779 183.739 478.724C188.602 429.637 165.346 387.03 131.895 383.688C130.509 383.552 129.126 383.484 127.745 383.484Z" fill="#6DC8C2"/>
<path id="Vector_36" d="M121.653 478.139C125.284 478.139 128.227 474.599 128.227 470.233C128.227 465.866 125.284 462.327 121.653 462.327C118.022 462.327 115.078 465.866 115.078 470.233C115.078 474.599 118.022 478.139 121.653 478.139Z" fill="black"/>
<path id="Vector_37" d="M121.659 463.699C121.562 463.709 121.464 463.709 121.367 463.699C121.193 463.661 121.028 463.589 120.881 463.487C120.734 463.386 120.609 463.256 120.513 463.106C120.416 462.956 120.35 462.788 120.318 462.613C120.287 462.437 120.29 462.257 120.328 462.082L153.311 308.343C153.773 306.232 154.941 304.343 156.621 302.985C158.302 301.627 160.394 300.881 162.555 300.871H209.25C209.611 300.871 209.956 301.015 210.211 301.269C210.466 301.524 210.609 301.87 210.609 302.23C210.609 302.59 210.466 302.936 210.211 303.19C209.956 303.445 209.611 303.588 209.25 303.588H162.555C161.016 303.598 159.525 304.13 158.329 305.098C157.132 306.065 156.299 307.411 155.966 308.913L122.984 462.612C122.921 462.918 122.756 463.193 122.514 463.391C122.273 463.589 121.971 463.697 121.659 463.699Z" fill="black"/>
<path id="Vector_38" d="M122.821 276.916C121.142 276.913 119.513 276.344 118.197 275.301C116.881 274.259 115.954 272.804 115.567 271.17L101.059 209.267C100.815 208.178 100.819 207.048 101.069 205.96C101.319 204.873 101.81 203.855 102.505 202.982C103.2 202.109 104.082 201.403 105.086 200.916C106.09 200.428 107.19 200.172 108.306 200.165H186.565C188.223 200.162 189.835 200.715 191.143 201.734C192.452 202.753 193.381 204.18 193.785 205.789L208.727 265.125C208.994 266.203 209.016 267.326 208.794 268.414C208.571 269.502 208.109 270.526 207.441 271.413C206.773 272.299 205.916 273.026 204.932 273.54C203.947 274.053 202.861 274.341 201.752 274.383L123.099 276.916H122.821ZM108.306 202.882C107.595 202.887 106.894 203.051 106.254 203.362C105.615 203.674 105.054 204.125 104.612 204.682C104.17 205.239 103.859 205.889 103.701 206.582C103.543 207.276 103.543 207.996 103.701 208.689L118.216 270.593C118.464 271.629 119.052 272.551 119.887 273.213C120.722 273.874 121.755 274.236 122.821 274.24H122.977L201.657 271.673C202.361 271.645 203.05 271.46 203.674 271.133C204.298 270.806 204.842 270.345 205.266 269.782C205.689 269.219 205.983 268.569 206.125 267.878C206.266 267.188 206.253 266.475 206.085 265.791L191.143 206.455C190.881 205.436 190.289 204.533 189.46 203.886C188.63 203.24 187.61 202.887 186.558 202.882H108.306Z" fill="black"/>
<path id="Vector_39" d="M186.857 226.199H160.931C160.571 226.199 160.226 226.056 159.971 225.801C159.716 225.547 159.573 225.201 159.573 224.841C159.573 224.481 159.716 224.135 159.971 223.88C160.226 223.626 160.571 223.482 160.931 223.482H186.857C187.217 223.482 187.563 223.626 187.817 223.88C188.072 224.135 188.215 224.481 188.215 224.841C188.215 225.201 188.072 225.547 187.817 225.801C187.563 226.056 187.217 226.199 186.857 226.199Z" fill="black"/>
<path id="Vector_40" d="M188.779 237.569H162.846C162.486 237.569 162.14 237.426 161.886 237.171C161.631 236.917 161.488 236.571 161.488 236.211C161.488 235.851 161.631 235.505 161.886 235.25C162.14 234.995 162.486 234.852 162.846 234.852H188.779C189.139 234.852 189.484 234.995 189.739 235.25C189.994 235.505 190.137 235.851 190.137 236.211C190.137 236.571 189.994 236.917 189.739 237.171C189.484 237.426 189.139 237.569 188.779 237.569Z" fill="black"/>
<path id="Vector_41" d="M182.388 248.932H164.382C164.022 248.932 163.676 248.789 163.421 248.534C163.167 248.28 163.023 247.934 163.023 247.574C163.023 247.214 163.167 246.868 163.421 246.613C163.676 246.359 164.022 246.216 164.382 246.216H182.388C182.748 246.216 183.094 246.359 183.348 246.613C183.603 246.868 183.746 247.214 183.746 247.574C183.746 247.934 183.603 248.28 183.348 248.534C183.094 248.789 182.748 248.932 182.388 248.932Z" fill="black"/>
<path id="Vector_42" d="M153.534 252.587H127.317C126.683 252.586 126.068 252.376 125.566 251.989C125.065 251.602 124.706 251.06 124.545 250.447L118.833 228.42C118.725 227.997 118.714 227.555 118.802 227.127C118.891 226.7 119.076 226.298 119.343 225.952C119.61 225.607 119.953 225.327 120.345 225.135C120.737 224.942 121.168 224.842 121.604 224.841H147.822C148.455 224.841 149.071 225.051 149.572 225.438C150.074 225.825 150.433 226.368 150.593 226.98L156.305 249.007C156.416 249.43 156.427 249.873 156.339 250.301C156.252 250.73 156.067 251.132 155.799 251.478C155.531 251.823 155.188 252.103 154.796 252.295C154.403 252.488 153.971 252.587 153.534 252.587Z" fill="#FFBB45"/>
<path id="Vector_43" d="M140.079 252.654C139.758 252.66 139.446 252.552 139.197 252.349C138.949 252.147 138.78 251.862 138.721 251.547L133.966 226.376C133.908 226.025 133.989 225.666 134.193 225.375C134.396 225.084 134.706 224.884 135.055 224.818C135.404 224.753 135.765 224.826 136.06 225.023C136.356 225.22 136.562 225.525 136.635 225.873L141.39 251.045C141.423 251.22 141.422 251.401 141.385 251.576C141.349 251.751 141.278 251.917 141.177 252.065C141.076 252.213 140.947 252.339 140.797 252.437C140.647 252.534 140.479 252.601 140.303 252.634C140.229 252.646 140.154 252.653 140.079 252.654Z" fill="black"/>
<path id="Vector_44" d="M145.269 234.349C144.643 234.351 144.037 234.132 143.557 233.731L135.454 227.034C135.304 226.925 135.178 226.787 135.083 226.627C134.988 226.468 134.927 226.291 134.904 226.107C134.881 225.923 134.895 225.736 134.946 225.557C134.998 225.379 135.085 225.213 135.203 225.07C135.322 224.927 135.468 224.81 135.633 224.725C135.798 224.641 135.979 224.591 136.164 224.579C136.349 224.567 136.534 224.593 136.709 224.656C136.884 224.718 137.044 224.816 137.179 224.942L145.282 231.633L148.087 224.773C148.234 224.454 148.497 224.205 148.823 224.076C149.148 223.948 149.511 223.95 149.835 224.082C150.159 224.214 150.42 224.467 150.562 224.786C150.705 225.106 150.719 225.469 150.601 225.798L147.775 232.672C147.617 233.065 147.368 233.415 147.047 233.692C146.727 233.97 146.346 234.167 145.934 234.268C145.717 234.321 145.493 234.349 145.269 234.349Z" fill="black"/>
<path id="Vector_45" d="M149.181 252.41C148.869 252.408 148.567 252.299 148.326 252.102C148.085 251.904 147.919 251.629 147.857 251.323L144.155 233.236C144.083 232.883 144.154 232.515 144.353 232.215C144.551 231.914 144.861 231.705 145.214 231.633C145.568 231.561 145.935 231.632 146.235 231.83C146.536 232.029 146.745 232.339 146.817 232.692L150.506 250.78C150.541 250.954 150.542 251.135 150.508 251.31C150.474 251.485 150.406 251.652 150.308 251.801C150.209 251.949 150.083 252.078 149.935 252.177C149.787 252.277 149.621 252.347 149.446 252.383C149.359 252.401 149.27 252.41 149.181 252.41Z" fill="black"/>
<path id="Vector_46" d="M522.143 284.754H414.121C409.252 284.754 405.305 288.701 405.305 293.57V371.347C405.305 376.216 409.252 380.163 414.121 380.163H522.143C527.012 380.163 530.959 376.216 530.959 371.347V293.57C530.959 288.701 527.012 284.754 522.143 284.754Z" fill="#6DC8C2"/>
<path id="Vector_47" d="M507.763 381.515C507.403 381.515 507.058 381.372 506.803 381.117C506.548 380.862 506.405 380.516 506.405 380.156V329.154C506.405 328.794 506.548 328.448 506.803 328.194C507.058 327.939 507.403 327.796 507.763 327.796C508.124 327.796 508.469 327.939 508.724 328.194C508.979 328.448 509.122 328.794 509.122 329.154V380.156C509.122 380.516 508.979 380.862 508.724 381.117C508.469 381.372 508.124 381.515 507.763 381.515Z" fill="black"/>
<path id="Vector_48" d="M436.073 294.31H417.741C415.693 294.31 414.032 295.971 414.032 298.019V308.193C414.032 310.242 415.693 311.902 417.741 311.902H436.073C438.121 311.902 439.781 310.242 439.781 308.193V298.019C439.781 295.971 438.121 294.31 436.073 294.31Z" fill="white"/>
<path id="Vector_49" d="M436.895 322.912H416.151C415.791 322.912 415.446 322.769 415.191 322.514C414.936 322.259 414.793 321.914 414.793 321.553C414.793 321.193 414.936 320.848 415.191 320.593C415.446 320.338 415.791 320.195 416.151 320.195H436.895C437.255 320.195 437.6 320.338 437.855 320.593C438.11 320.848 438.253 321.193 438.253 321.553C438.253 321.914 438.11 322.259 437.855 322.514C437.6 322.769 437.255 322.912 436.895 322.912Z" fill="black"/>
<path id="Vector_50" d="M431.413 331.171H416.151C415.791 331.171 415.446 331.028 415.191 330.773C414.936 330.519 414.793 330.173 414.793 329.813C414.793 329.453 414.936 329.107 415.191 328.852C415.446 328.598 415.791 328.454 416.151 328.454H431.413C431.774 328.454 432.119 328.598 432.374 328.852C432.629 329.107 432.772 329.453 432.772 329.813C432.772 330.173 432.629 330.519 432.374 330.773C432.119 331.028 431.774 331.171 431.413 331.171Z" fill="black"/>
<path id="Vector_51" d="M507.641 330.519C505.04 330.519 502.642 328.923 501.209 326.227L480.717 290.296C480.537 289.983 480.489 289.611 480.583 289.262C480.678 288.913 480.907 288.615 481.22 288.435C481.533 288.255 481.906 288.207 482.255 288.301C482.604 288.396 482.901 288.625 483.081 288.938L503.586 324.902C504.592 326.79 506.113 327.857 507.736 327.782C509.36 327.707 510.949 326.546 511.866 324.583L526.958 289.21C527.028 289.046 527.13 288.897 527.257 288.772C527.385 288.647 527.536 288.549 527.701 288.482C527.867 288.416 528.044 288.382 528.222 288.384C528.401 288.386 528.577 288.423 528.741 288.493C528.905 288.563 529.054 288.665 529.179 288.792C529.304 288.92 529.402 289.071 529.469 289.236C529.535 289.402 529.568 289.579 529.567 289.757C529.565 289.936 529.528 290.112 529.458 290.276L514.325 325.704C512.966 328.658 510.508 330.458 507.791 330.513L507.641 330.519Z" fill="black"/>
<path id="Vector_52" d="M479.339 381.188C478.978 381.188 478.633 381.045 478.378 380.79C478.123 380.536 477.98 380.19 477.98 379.83V299.499C477.688 287.145 484.018 284.482 484.283 284.38C484.613 284.262 484.975 284.276 485.295 284.418C485.615 284.561 485.867 284.822 486 285.146C486.132 285.47 486.134 285.833 486.005 286.158C485.876 286.484 485.627 286.747 485.309 286.893C485.071 287.002 480.453 289.175 480.69 299.466V379.83C480.69 380.189 480.548 380.533 480.295 380.788C480.042 381.043 479.698 381.187 479.339 381.188Z" fill="black"/>
<path id="Vector_53" d="M399.226 321.554H341.248C339.633 321.545 338.087 320.897 336.948 319.751C335.809 318.606 335.169 317.056 335.169 315.441C335.167 313.995 335.681 312.596 336.619 311.495C337.556 310.394 338.856 309.664 340.284 309.436L398.261 300.118C399.13 299.984 400.017 300.039 400.862 300.279C401.708 300.519 402.492 300.939 403.16 301.509C403.829 302.08 404.366 302.788 404.736 303.585C405.106 304.382 405.3 305.25 405.305 306.129V315.441C405.305 317.056 404.665 318.606 403.526 319.751C402.387 320.897 400.841 321.545 399.226 321.554Z" fill="black"/>
<path id="Vector_54" d="M510.012 233.141H436.609C431.253 233.141 426.91 237.483 426.91 242.84V275.062C426.91 280.418 431.253 284.761 436.609 284.761H510.012C515.368 284.761 519.711 280.418 519.711 275.062V242.84C519.711 237.483 515.368 233.141 510.012 233.141Z" fill="#FFBB45"/>
<path id="Vector_55" d="M475.325 285.746C474.964 285.746 474.619 285.603 474.364 285.348C474.109 285.093 473.966 284.748 473.966 284.387V233.134C473.966 232.774 474.109 232.428 474.364 232.174C474.619 231.919 474.964 231.776 475.325 231.776C475.685 231.776 476.031 231.919 476.285 232.174C476.54 232.428 476.683 232.774 476.683 233.134V284.387C476.683 284.748 476.54 285.093 476.285 285.348C476.031 285.603 475.685 285.746 475.325 285.746Z" fill="black"/>
<path id="Vector_56" d="M507.376 264.398H491.191L474.163 236.245C473.991 235.937 473.945 235.575 474.035 235.235C474.125 234.894 474.344 234.602 474.645 234.419C474.946 234.237 475.307 234.179 475.65 234.257C475.994 234.335 476.293 234.544 476.486 234.839L492.726 261.681H505.692L517.531 238.011C517.692 237.688 517.975 237.443 518.317 237.329C518.659 237.215 519.032 237.242 519.354 237.403C519.677 237.564 519.922 237.847 520.036 238.189C520.15 238.531 520.123 238.904 519.962 239.227L507.376 264.398Z" fill="black"/>
<path id="Vector_57" d="M476.364 285.745C476.113 285.745 475.868 285.675 475.655 285.543C475.441 285.412 475.268 285.224 475.155 285.001C475.042 284.777 474.993 284.527 475.013 284.277C475.034 284.027 475.123 283.788 475.27 283.586L491.266 261.708H507.275L519.08 279.945C519.187 280.095 519.264 280.265 519.304 280.445C519.344 280.625 519.346 280.811 519.312 280.992C519.278 281.173 519.207 281.346 519.103 281.499C519 281.652 518.867 281.782 518.712 281.882C518.557 281.981 518.383 282.048 518.201 282.079C518.019 282.109 517.833 282.102 517.654 282.058C517.475 282.014 517.306 281.934 517.159 281.823C517.012 281.712 516.889 281.572 516.797 281.412L505.821 264.398H492.645L477.464 285.161C477.341 285.339 477.176 285.485 476.985 285.587C476.794 285.689 476.581 285.743 476.364 285.745Z" fill="black"/>
<path id="Vector_58" d="M384.052 102.386H354.839C350.649 102.386 347.252 105.782 347.252 109.972V136.407C347.252 140.597 350.649 143.994 354.839 143.994H384.052C388.242 143.994 391.638 140.597 391.638 136.407V109.972C391.638 105.782 388.242 102.386 384.052 102.386Z" fill="white"/>
<path id="Vector_59" d="M384.052 145.353H354.846C353.67 145.354 352.505 145.124 351.417 144.676C350.33 144.227 349.342 143.568 348.509 142.738C347.677 141.907 347.016 140.92 346.565 139.834C346.114 138.748 345.881 137.583 345.88 136.407V109.972C345.878 108.795 346.109 107.628 346.558 106.54C347.008 105.451 347.667 104.462 348.499 103.629C349.331 102.795 350.32 102.134 351.407 101.683C352.495 101.232 353.661 101 354.839 101H384.045C386.416 101.004 388.69 101.947 390.366 103.624C392.043 105.301 392.987 107.574 392.99 109.945V136.38C392.993 137.556 392.764 138.721 392.316 139.809C391.868 140.897 391.21 141.885 390.38 142.719C389.55 143.552 388.564 144.213 387.478 144.665C386.392 145.117 385.228 145.351 384.052 145.353ZM354.846 103.744C353.195 103.748 351.613 104.405 350.446 105.572C349.278 106.74 348.621 108.322 348.617 109.972V136.407C348.619 138.059 349.276 139.642 350.444 140.809C351.611 141.977 353.194 142.634 354.846 142.636H384.052C385.703 142.634 387.286 141.977 388.454 140.809C389.622 139.642 390.278 138.059 390.28 136.407V109.972C390.282 109.153 390.122 108.341 389.81 107.583C389.498 106.825 389.04 106.136 388.462 105.555C387.883 104.974 387.196 104.513 386.44 104.197C385.683 103.882 384.872 103.719 384.052 103.717L354.846 103.744Z" fill="black"/>
<path id="Vector_60" d="M378.937 124.093C379.818 122.422 380.242 120.547 380.167 118.659C380.028 115.851 378.799 113.207 376.742 111.289C374.685 109.372 371.961 108.332 369.15 108.39C366.338 108.449 363.66 109.601 361.684 111.602C359.708 113.603 358.59 116.296 358.568 119.108C358.574 120.758 358.96 122.385 359.695 123.862C359.906 124.324 360.13 124.793 360.375 125.255C362.231 129.106 364.328 132.838 366.651 136.428C366.899 136.815 367.239 137.135 367.641 137.36C368.042 137.584 368.493 137.706 368.953 137.715C369.413 137.724 369.868 137.619 370.278 137.41C370.688 137.201 371.04 136.894 371.303 136.516C373.938 132.685 376.429 128.689 378.774 124.528C378.822 124.453 378.863 124.372 378.903 124.297L378.971 124.181C378.903 124.134 378.924 124.093 378.937 124.093Z" fill="#FB6D6D"/>
<path id="Vector_61" d="M369.368 124.433C371.933 124.433 374.013 122.353 374.013 119.787C374.013 117.221 371.933 115.141 369.368 115.141C366.802 115.141 364.722 117.221 364.722 119.787C364.722 122.353 366.802 124.433 369.368 124.433Z" fill="white"/>
<path id="Vector_62" d="M242.593 123.53C242.593 123.53 234.958 127.489 238.646 145.149C239.099 147.311 238.861 149.561 237.967 151.581L237.145 153.422C236.942 153.887 236.915 154.41 237.068 154.893C237.222 155.377 237.546 155.788 237.981 156.05L240.439 157.511L243.258 168.684C243.258 168.684 245.438 180.875 258.955 175.87L267.635 172.915L281.145 179.612L301.732 157.314L291.251 149.014C295.265 147.594 297.874 143.899 297.717 140.055C297.534 135.47 293.547 132.991 293.37 132.889C291.542 131.812 289.393 131.411 287.298 131.755C283.59 132.434 280.506 135.633 279.501 139.871C279.494 139.871 257.624 152.62 242.593 123.53Z" fill="white"/>
<path id="Vector_63" d="M281.464 181.31L267.547 174.409L259.396 177.18C254.696 178.919 250.689 178.892 247.517 177.078C243.156 174.586 242.083 169.607 241.94 169.003L239.244 158.414L237.274 157.245C236.556 156.811 236.022 156.13 235.772 155.329C235.521 154.528 235.573 153.664 235.916 152.898L236.731 151.058C237.508 149.297 237.71 147.336 237.308 145.454C233.457 126.939 241.614 122.504 241.961 122.32L243.17 121.702L243.788 122.904C248.719 132.413 254.879 138.329 262.127 140.435C267.538 141.908 273.3 141.38 278.353 138.947C279.657 134.465 283.026 131.15 287.074 130.416C289.491 130.021 291.97 130.482 294.084 131.721C294.281 131.836 298.872 134.648 299.089 139.993C299.119 141.873 298.646 143.727 297.72 145.363C296.793 146.999 295.446 148.358 293.819 149.299L303.735 157.157L281.464 181.31ZM267.771 171.475L280.873 177.968L299.762 157.47L288.473 148.545L290.789 147.723C294.185 146.521 296.488 143.383 296.352 140.095C296.196 136.231 292.705 134.064 292.664 134.043C291.118 133.137 289.305 132.796 287.536 133.079C284.364 133.656 281.722 136.475 280.812 140.19L280.676 140.754L280.173 141.039C274.381 144.079 267.647 144.794 261.346 143.036C253.779 140.829 247.333 134.974 242.171 125.621C241.408 126.475 240.796 127.454 240.365 128.515C239.196 131.232 238.184 136.298 239.978 144.891C240.5 147.33 240.244 149.872 239.244 152.158L238.402 153.978C238.332 154.14 238.323 154.321 238.377 154.488C238.431 154.656 238.543 154.798 238.694 154.889L241.628 156.641L244.61 168.452C244.61 168.493 245.445 172.752 248.896 174.715C251.327 176.073 254.56 176.073 258.493 174.599L267.771 171.475Z" fill="black"/>
<path id="Vector_64" d="M288.147 145.088C287.235 145.093 286.354 144.754 285.679 144.139C285.005 143.524 284.587 142.677 284.508 141.768C284.429 140.859 284.695 139.954 285.254 139.232C285.812 138.51 286.621 138.024 287.521 137.871C288.421 137.719 289.345 137.91 290.11 138.408C290.875 138.906 291.425 139.673 291.65 140.557C291.875 141.442 291.759 142.378 291.326 143.181C290.892 143.984 290.172 144.594 289.309 144.891C288.936 145.023 288.543 145.089 288.147 145.088ZM288.147 140.557C288.048 140.559 287.949 140.577 287.855 140.612C287.648 140.688 287.476 140.84 287.375 141.037C287.274 141.234 287.25 141.461 287.309 141.675C287.368 141.888 287.504 142.071 287.692 142.189C287.88 142.306 288.104 142.349 288.322 142.308C288.539 142.268 288.734 142.147 288.867 141.97C288.999 141.793 289.061 141.573 289.039 141.353C289.017 141.132 288.913 140.929 288.748 140.781C288.583 140.634 288.368 140.554 288.147 140.557Z" fill="black"/>
<path id="Vector_65" d="M286.028 143.552C285.76 143.554 285.498 143.476 285.274 143.328C285.051 143.181 284.876 142.97 284.771 142.724C284.276 141.596 284.185 140.332 284.513 139.144C285.192 136.855 287.502 135.253 290.266 135.151C290.626 135.138 290.977 135.269 291.241 135.515C291.504 135.761 291.659 136.101 291.672 136.462C291.685 136.822 291.554 137.172 291.308 137.436C291.062 137.7 290.721 137.855 290.361 137.867C288.792 137.922 287.461 138.764 287.121 139.905C286.971 140.492 287.026 141.113 287.277 141.664C287.347 141.829 287.383 142.005 287.384 142.184C287.385 142.362 287.35 142.539 287.283 142.705C287.215 142.87 287.116 143.02 286.99 143.147C286.865 143.274 286.715 143.375 286.551 143.444C286.385 143.513 286.207 143.55 286.028 143.552Z" fill="black"/>
<path id="Vector_66" d="M253.704 148.708C254.777 148.708 255.647 147.838 255.647 146.765C255.647 145.692 254.777 144.823 253.704 144.823C252.631 144.823 251.762 145.692 251.762 146.765C251.762 147.838 252.631 148.708 253.704 148.708Z" fill="black"/>
<path id="Vector_67" d="M250.064 165.24C249.748 165.242 249.433 165.222 249.12 165.179C248.759 165.119 248.438 164.919 248.225 164.622C248.012 164.326 247.926 163.956 247.985 163.596C248.045 163.236 248.245 162.914 248.542 162.701C248.839 162.489 249.208 162.402 249.568 162.462C249.745 162.462 253.351 162.964 255.946 158.944C256.042 158.792 256.167 158.661 256.314 158.557C256.461 158.454 256.627 158.381 256.802 158.343C256.977 158.304 257.158 158.301 257.335 158.333C257.512 158.364 257.68 158.431 257.831 158.528C257.982 158.626 258.112 158.752 258.213 158.9C258.315 159.048 258.386 159.214 258.423 159.39C258.46 159.566 258.462 159.747 258.428 159.923C258.395 160.1 258.327 160.268 258.228 160.417C255.491 164.696 251.782 165.24 250.064 165.24Z" fill="black"/>
<path id="Vector_68" d="M262.045 101.761H282.673C288.629 101.766 294.339 104.136 298.55 108.348C302.76 112.561 305.126 118.273 305.128 124.229H239.577C239.579 118.271 241.946 112.557 246.16 108.344C250.373 104.13 256.087 101.763 262.045 101.761Z" fill="#6DC8C2"/>
<path id="Vector_69" d="M271.683 173.499C271.683 173.499 272.987 172.392 279.467 160.22L278.156 176.739L271.683 173.499Z" fill="black"/>
<path id="Vector_70" d="M279.093 124.229C281.076 131.675 281.479 139.453 280.275 147.064C278.62 157.174 274.216 166.634 267.547 174.409L272.301 176.807C274.678 174.077 276.78 171.119 278.577 167.977C288.392 150.766 286.306 132.611 284.731 124.249L279.093 124.229Z" fill="#FFBB45"/>
<path id="Vector_71" d="M278.435 182.505L302.608 156.851C305.019 154.126 308.046 152.016 311.437 150.698C318.746 147.933 326.482 149.76 337.526 154.997C346.214 159.154 354.471 164.159 362.175 169.94C377.742 181.527 390.022 197.061 397.039 215.155C402.33 228.807 405.488 245.787 401.175 264.357C396.78 283.273 386.395 296.28 379.854 303.133L333.186 279.701L278.435 182.505Z" fill="black"/>
<path id="Vector_72" d="M354.486 253.612C354.155 253.609 353.837 253.486 353.59 253.266C353.344 253.045 353.187 252.743 353.148 252.415C353.108 252.086 353.19 251.755 353.378 251.483C353.565 251.211 353.846 251.016 354.166 250.936L376.377 245.502C376.554 245.447 376.74 245.429 376.925 245.449C377.109 245.47 377.288 245.527 377.449 245.619C377.61 245.71 377.751 245.834 377.863 245.982C377.974 246.13 378.054 246.3 378.098 246.48C378.142 246.66 378.148 246.848 378.117 247.031C378.085 247.213 378.017 247.388 377.915 247.543C377.814 247.698 377.681 247.831 377.527 247.933C377.372 248.036 377.198 248.105 377.015 248.138L354.812 253.571C354.704 253.595 354.595 253.609 354.486 253.612Z" fill="white"/>
<path id="Vector_73" d="M351.199 237.63C343.571 213.036 326.747 177.038 303.423 174.633C299.877 174.273 288.765 173.126 280.724 180.067C279.259 181.353 277.965 182.82 276.872 184.434C269.788 194.86 273.381 207.894 274.325 211.338C274.995 213.765 275.887 216.124 276.988 218.388C282.014 227.979 287.036 237.571 292.053 247.166L243.116 263.875C241.834 264.137 240.626 264.677 239.577 265.458L255.735 302.726C257.813 302.484 259.849 301.963 261.787 301.177L335.142 279.694C340.752 278.05 346.268 273.207 349.501 268.528C355.722 259.514 354.282 247.588 351.199 237.63Z" fill="black"/>
<path id="Vector_74" d="M329.226 282.56C328.904 282.563 328.591 282.451 328.344 282.244C328.097 282.037 327.931 281.75 327.876 281.432C327.822 281.115 327.882 280.788 328.046 280.511C328.209 280.233 328.466 280.023 328.771 279.918L334.524 277.88C340.966 275.615 346.324 271.017 349.541 264.994C352.758 258.97 353.599 251.959 351.898 245.346C350.961 241.651 349.86 237.949 348.645 234.343C345.736 225.742 342.051 217.423 337.635 209.49C337.46 209.175 337.418 208.803 337.517 208.457C337.616 208.111 337.849 207.818 338.164 207.643C338.48 207.468 338.851 207.426 339.198 207.525C339.544 207.625 339.837 207.858 340.012 208.173C344.505 216.241 348.256 224.7 351.219 233.446C352.462 237.121 353.576 240.918 354.533 244.646C356.404 251.916 355.48 259.623 351.946 266.245C348.411 272.866 342.522 277.922 335.441 280.414L329.688 282.451C329.541 282.514 329.385 282.551 329.226 282.56Z" fill="white"/>
<path id="Vector_75" d="M469.986 219.502H388.895C388.535 219.502 388.189 219.359 387.934 219.104C387.679 218.849 387.536 218.504 387.536 218.144C387.536 217.783 387.679 217.438 387.934 217.183C388.189 216.928 388.535 216.785 388.895 216.785H469.986C470.346 216.785 470.692 216.928 470.946 217.183C471.201 217.438 471.344 217.783 471.344 218.144C471.344 218.504 471.201 218.849 470.946 219.104C470.692 219.359 470.346 219.502 469.986 219.502Z" fill="black"/>
<path id="Vector_76" d="M422.978 207.066C422.617 207.066 422.272 206.923 422.017 206.668C421.762 206.413 421.619 206.068 421.619 205.707V180.237C421.619 179.877 421.762 179.531 422.017 179.276C422.272 179.021 422.617 178.878 422.978 178.878C423.338 178.878 423.683 179.021 423.938 179.276C424.193 179.531 424.336 179.877 424.336 180.237V205.707C424.336 206.068 424.193 206.413 423.938 206.668C423.683 206.923 423.338 207.066 422.978 207.066Z" fill="black"/>
<path id="Vector_77" d="M237.512 273.384L214.249 282.214C213.217 282.608 212.164 282.947 211.111 283.287C208.822 284.021 202.886 287.091 202.397 299.147C202.397 299.147 201.718 313.091 210.609 312.642C210.609 312.642 215.743 321.296 221.809 317.852C221.809 317.852 230.482 322.702 232.459 313.437C234.601 311.558 236.761 309.604 238.939 307.576C242.416 304.336 245.697 301.116 248.801 297.951L237.512 273.384Z" fill="white"/>
<path id="Vector_78" d="M226.563 320.501C224.92 320.459 223.303 320.085 221.809 319.4C216.708 321.717 212.021 317.281 209.848 314.035C207.921 313.997 206.085 313.208 204.733 311.834C200.658 307.759 201.011 299.459 201.025 299.106C201.541 286.323 207.953 282.9 210.683 282.023C211.784 281.663 212.775 281.344 213.753 280.971L238.205 271.665L250.431 298.257L249.751 298.936C246.539 302.21 243.211 305.463 239.842 308.601C237.804 310.496 235.766 312.377 233.668 314.198C232.989 317.057 231.569 318.952 229.504 319.91C228.576 320.311 227.574 320.513 226.563 320.501ZM221.809 316.324L222.488 316.697C222.522 316.697 225.925 318.565 228.431 317.424C229.789 316.813 230.672 315.386 231.148 313.179L231.243 312.737L231.576 312.439C233.736 310.544 235.902 308.581 238.028 306.604C241.132 303.711 244.209 300.715 247.184 297.693L236.819 275.109L214.745 283.511C213.706 283.905 212.707 284.238 211.539 284.604C209.352 285.284 204.217 288.143 203.769 299.228C203.769 299.309 203.463 306.699 206.676 309.919C207.181 310.42 207.791 310.804 208.461 311.045C209.131 311.285 209.845 311.376 210.554 311.311L211.369 311.27L211.79 311.95C212.638 313.288 213.677 314.497 214.874 315.536C217.115 317.424 219.173 317.798 221.157 316.67L221.809 316.324Z" fill="black"/>
<path id="Vector_79" d="M210.608 314.028C210.341 314.028 210.081 313.949 209.858 313.802C209.636 313.654 209.462 313.445 209.358 313.199C209.216 312.867 205.962 304.981 208.679 297.904C208.743 297.737 208.839 297.584 208.962 297.454C209.084 297.325 209.231 297.221 209.394 297.148C209.557 297.075 209.733 297.035 209.912 297.03C210.09 297.025 210.268 297.055 210.435 297.119C210.602 297.183 210.754 297.279 210.884 297.402C211.014 297.524 211.118 297.671 211.191 297.834C211.263 297.998 211.304 298.173 211.308 298.352C211.313 298.53 211.283 298.708 211.219 298.875C208.903 304.94 211.858 312.072 211.898 312.14C212.039 312.471 212.042 312.845 211.907 313.179C211.772 313.512 211.51 313.779 211.178 313.919C210.998 313.996 210.804 314.033 210.608 314.028Z" fill="black"/>
<path id="Vector_80" d="M222.664 319.027C222.426 319.027 222.191 318.963 221.985 318.844C217.781 316.426 215.349 312.147 214.962 306.469C214.8 303.873 215.029 301.267 215.641 298.739C215.674 298.554 215.744 298.379 215.848 298.222C215.951 298.066 216.086 297.933 216.244 297.832C216.402 297.731 216.579 297.663 216.764 297.633C216.949 297.604 217.138 297.612 217.32 297.66C217.501 297.707 217.671 297.791 217.818 297.906C217.966 298.022 218.087 298.167 218.176 298.333C218.265 298.498 218.318 298.679 218.333 298.866C218.348 299.053 218.324 299.241 218.263 299.418C218.263 299.547 215.098 311.712 223.357 316.467C223.615 316.616 223.817 316.847 223.931 317.123C224.045 317.399 224.065 317.705 223.987 317.993C223.91 318.282 223.74 318.537 223.503 318.719C223.266 318.901 222.976 318.999 222.678 319L222.664 319.027Z" fill="black"/>
<path id="Vector_81" d="M232.452 314.823C232.349 314.823 232.246 314.809 232.146 314.782C223.622 312.833 223.5 302.407 224.627 297.163C224.709 296.817 224.923 296.517 225.223 296.327C225.524 296.137 225.887 296.072 226.235 296.147C226.582 296.221 226.887 296.43 227.083 296.726C227.279 297.023 227.351 297.385 227.283 297.734C227.283 297.863 224.709 310.292 232.717 312.14C233.042 312.214 233.329 312.405 233.522 312.677C233.715 312.949 233.802 313.283 233.765 313.615C233.728 313.946 233.57 314.253 233.322 314.476C233.073 314.698 232.752 314.822 232.418 314.823H232.452Z" fill="black"/>
<path id="Vector_82" d="M303.09 120.697H241.418C241.057 120.697 240.712 120.554 240.457 120.299C240.202 120.045 240.059 119.699 240.059 119.339C240.059 118.978 240.202 118.633 240.457 118.378C240.712 118.123 241.057 117.98 241.418 117.98H303.09C303.45 117.98 303.796 118.123 304.05 118.378C304.305 118.633 304.448 118.978 304.448 119.339C304.448 119.699 304.305 120.045 304.05 120.299C303.796 120.554 303.45 120.697 303.09 120.697Z" fill="black"/>
<path id="Vector_83" d="M494.179 190.126H458.589C454.74 190.126 451.62 193.246 451.62 197.095V226.172C451.62 230.021 454.74 233.141 458.589 233.141H494.179C498.028 233.141 501.148 230.021 501.148 226.172V197.095C501.148 193.246 498.028 190.126 494.179 190.126Z" fill="#FFC1EB"/>
<path id="Vector_84" d="M499.871 207.066H452.849C452.489 207.066 452.144 206.923 451.889 206.668C451.634 206.413 451.491 206.068 451.491 205.707C451.491 205.347 451.634 205.001 451.889 204.747C452.144 204.492 452.489 204.349 452.849 204.349H499.871C500.231 204.349 500.577 204.492 500.832 204.747C501.087 205.001 501.23 205.347 501.23 205.707C501.23 206.068 501.087 206.413 500.832 206.668C500.577 206.923 500.231 207.066 499.871 207.066Z" fill="#FB6D6D"/>
<path id="Vector_85" d="M476.391 234.492C476.031 234.492 475.685 234.349 475.431 234.094C475.176 233.84 475.033 233.494 475.033 233.134V190.126C475.033 189.766 475.176 189.42 475.431 189.166C475.685 188.911 476.031 188.768 476.391 188.768C476.751 188.768 477.097 188.911 477.352 189.166C477.606 189.42 477.75 189.766 477.75 190.126V233.134C477.75 233.494 477.606 233.84 477.352 234.094C477.097 234.349 476.751 234.492 476.391 234.492Z" fill="#FB6D6D"/>
<path id="Vector_86" d="M474.964 193.896L475.032 191.668C475.555 174.26 481.098 168.575 485.662 166.863C486.697 166.477 487.802 166.316 488.905 166.391C490.007 166.466 491.08 166.775 492.053 167.298C492.984 167.789 493.798 168.474 494.442 169.305C495.087 170.137 495.546 171.097 495.789 172.12C498.234 182.594 477.844 192.497 476.975 192.931L474.964 193.896ZM486.613 169.403C483.02 170.762 478.686 175.353 477.851 189.433C483.964 186.099 494.587 178.912 493.147 172.738C492.994 172.089 492.703 171.48 492.292 170.953C491.882 170.427 491.362 169.995 490.77 169.689C490.137 169.349 489.439 169.148 488.722 169.098C488.005 169.049 487.286 169.153 486.613 169.403Z" fill="#FB6D6D"/>
<path id="Vector_87" d="M477.043 193.896L475.005 192.931C474.136 192.517 453.746 182.594 456.191 172.12C456.434 171.097 456.893 170.137 457.537 169.305C458.182 168.474 458.996 167.789 459.927 167.298C460.9 166.775 461.973 166.466 463.075 166.391C464.178 166.316 465.283 166.477 466.318 166.863C470.882 168.568 476.431 174.26 476.948 191.668L477.043 193.896ZM463.642 169.084C462.803 169.085 461.977 169.292 461.238 169.689C460.645 169.995 460.125 170.427 459.715 170.953C459.305 171.48 459.013 172.089 458.86 172.738C457.42 178.919 468.016 186.105 474.163 189.433C473.321 175.353 468.987 170.748 465.394 169.403C464.834 169.194 464.24 169.085 463.642 169.084Z" fill="#FB6D6D"/>
<path id="Vector_88" d="M236.962 278.159L245.357 296.898C245.357 296.898 247.123 303.561 255.722 302.699L239.563 265.458C237.207 267.217 234.87 270.837 236.962 278.159Z" fill="#6DC8C2"/>
<path id="Vector_89" d="M291.7 247.431C291.377 247.431 291.065 247.315 290.82 247.105C290.574 246.895 290.412 246.605 290.361 246.286C290.31 245.967 290.375 245.641 290.543 245.365C290.711 245.09 290.972 244.883 291.279 244.782L308.938 238.961C309.28 238.849 309.653 238.877 309.975 239.039C310.296 239.202 310.54 239.485 310.653 239.827C310.766 240.17 310.738 240.543 310.575 240.864C310.413 241.186 310.129 241.43 309.787 241.542L292.128 247.357C291.99 247.404 291.845 247.429 291.7 247.431Z" fill="white"/>
<path id="Vector_90" d="M524.826 378.125H410.195C407.494 378.125 405.305 380.313 405.305 383.012C405.305 385.711 407.494 387.899 410.195 387.899H524.826C527.526 387.899 529.716 385.711 529.716 383.012C529.716 380.313 527.526 378.125 524.826 378.125Z" fill="black"/>
<path id="Vector_91" d="M190.687 123.482H148.752C142.672 123.482 137.742 128.411 137.742 134.492C137.742 140.573 142.672 145.502 148.752 145.502H190.687C196.768 145.502 201.697 140.573 201.697 134.492C201.697 128.411 196.768 123.482 190.687 123.482Z" fill="white"/>
<path id="Vector_92" d="M190.687 146.867H148.753C145.522 146.791 142.449 145.455 140.19 143.143C137.932 140.831 136.667 137.727 136.667 134.495C136.667 131.263 137.932 128.16 140.19 125.848C142.449 123.536 145.522 122.199 148.753 122.123H190.687C193.918 122.199 196.992 123.536 199.25 125.848C201.508 128.16 202.773 131.263 202.773 134.495C202.773 137.727 201.508 140.831 199.25 143.143C196.992 145.455 193.918 146.791 190.687 146.867ZM148.753 124.84C146.236 124.907 143.846 125.954 142.089 127.757C140.333 129.56 139.351 131.978 139.351 134.495C139.351 137.012 140.333 139.43 142.089 141.234C143.846 143.037 146.236 144.084 148.753 144.15H190.687C193.204 144.084 195.595 143.037 197.351 141.234C199.107 139.43 200.09 137.012 200.09 134.495C200.09 131.978 199.107 129.56 197.351 127.757C195.595 125.954 193.204 124.907 190.687 124.84H148.753Z" fill="black"/>
<path id="Vector_93" d="M152.298 138.078C154.279 138.078 155.885 136.473 155.885 134.492C155.885 132.511 154.279 130.906 152.298 130.906C150.318 130.906 148.712 132.511 148.712 134.492C148.712 136.473 150.318 138.078 152.298 138.078Z" fill="#6DC8C2"/>
<path id="Vector_94" d="M169.721 138.078C171.701 138.078 173.307 136.473 173.307 134.492C173.307 132.511 171.701 130.906 169.721 130.906C167.74 130.906 166.134 132.511 166.134 134.492C166.134 136.473 167.74 138.078 169.721 138.078Z" fill="#6DC8C2"/>
<path id="Vector_95" d="M187.141 138.078C189.122 138.078 190.728 136.473 190.728 134.492C190.728 132.511 189.122 130.906 187.141 130.906C185.161 130.906 183.555 132.511 183.555 134.492C183.555 136.473 185.161 138.078 187.141 138.078Z" fill="#6DC8C2"/>
</g>
</g>
</svg>
