<svg width="757" height="544" viewBox="0 0 757 544" fill="none" xmlns="http://www.w3.org/2000/svg">
<g id="picture1">
<rect x="1" y="1" width="755" height="542" fill="white"/>
<rect x="1" y="1" width="755" height="542" stroke="black" stroke-width="2"/>
<g id="figure_group">
<path id="background_pic1" d="M470.494 60.8047L151.05 319.201C128.329 337.578 137.518 369.984 167.597 377.53L590.438 483.615C620.517 491.166 648.919 468.215 641.56 442.263L538.163 77.7829C530.811 51.8593 493.215 42.427 470.494 60.8047Z" fill="#FFC1EB"/>
<g id="woman_in_pic1">
<path id="Vector" d="M393.689 183.535C379.876 195.117 375.232 212.115 381.307 224.466C385.476 232.935 393.536 236.89 397.1 238.367L431.852 230.169L423.102 196.981L393.689 183.535Z" fill="black"/>
<path id="Vector_2" d="M487.952 143.596C498.1 175.042 512.399 187.747 524.153 193.378C530.941 196.63 539.567 198.81 547.101 207.245C555.235 216.355 557.492 227.6 558.086 235.869L475.129 229.165L457.974 149.177L487.952 143.596Z" fill="black"/>
<path id="Vector_3" d="M413.686 117.667L438.861 112.97C450.116 110.871 461.763 113.229 471.24 119.528C480.717 125.826 487.247 135.547 489.395 146.554L491.418 156.926L390.195 175.808L386.486 156.791C384.789 148.076 386.701 139.059 391.802 131.722C396.902 124.385 404.774 119.329 413.686 117.667V117.667Z" fill="black"/>
<path id="Vector_4" d="M477.245 176.673C476.94 173.19 475.243 169.964 472.521 167.697C469.8 165.43 466.273 164.305 462.708 164.565L459.258 146.804C456.995 134.912 445.445 127.085 433.521 129.325L400.414 135.553C391.438 137.246 385.566 145.875 387.292 154.83L394.984 194.733C397.722 208.904 411.45 218.23 425.647 215.558L427.18 215.27L431.451 237.396L475.186 229.165L470.135 202.969H470.089L467.765 190.8C470.767 189.873 473.35 187.962 475.078 185.388C476.805 182.814 477.571 179.735 477.245 176.673Z" fill="white"/>
<path id="Vector_5" d="M430.546 239.499L426.281 217.374L425.862 217.451C422.374 218.113 418.785 218.089 415.306 217.381C411.826 216.674 408.526 215.297 405.596 213.33C402.548 211.305 399.943 208.707 397.931 205.688C395.919 202.67 394.541 199.29 393.876 195.746L386.177 155.843C384.339 146.307 390.606 137.081 400.222 135.284L433.335 129.055C436.286 128.496 439.321 128.517 442.264 129.115C445.208 129.713 448 130.877 450.479 132.54C453.057 134.253 455.262 136.45 456.964 139.003C458.666 141.557 459.832 144.416 460.395 147.414L463.658 164.229H463.822C467.485 164.272 471.001 165.641 473.692 168.069C476.384 170.498 478.061 173.816 478.399 177.382V177.382C478.722 180.529 477.987 183.692 476.304 186.393C474.622 189.093 472.084 191.183 469.077 192.345L471.029 202.539L471.266 203.573L476.527 230.853L430.546 239.499ZM428.085 214.791L432.35 236.916L473.862 229.111L469.23 205.072L468.981 203.966L466.464 190.818L467.437 190.53C470.181 189.675 472.542 187.924 474.122 185.569C475.703 183.215 476.408 180.4 476.119 177.598C475.463 170.927 469.479 165.938 462.799 166.486L461.786 166.569L458.149 147.834C457.641 145.122 456.588 142.535 455.048 140.225C453.509 137.914 451.516 135.926 449.184 134.376C446.951 132.876 444.435 131.826 441.783 131.286C439.131 130.747 436.395 130.729 433.736 131.235L400.629 137.463C392.275 139.034 386.794 147.098 388.4 155.445L396.099 195.348C396.705 198.604 397.968 201.71 399.813 204.485C401.658 207.259 404.048 209.647 406.846 211.511C409.53 213.313 412.554 214.576 415.742 215.225C418.93 215.875 422.218 215.898 425.416 215.294L428.085 214.791Z" fill="black"/>
<path id="Vector_6" d="M464.167 183.278C463.282 183.277 462.416 183.025 461.674 182.552C460.933 182.079 460.348 181.406 459.99 180.614C459.633 179.822 459.518 178.946 459.66 178.092C459.802 177.237 460.194 176.441 460.79 175.801C461.386 175.161 462.159 174.703 463.015 174.484C463.871 174.265 464.774 174.294 465.614 174.568C466.454 174.841 467.195 175.347 467.746 176.024C468.298 176.702 468.636 177.521 468.72 178.382V178.382C468.836 179.561 468.468 180.736 467.698 181.65C466.928 182.563 465.819 183.141 464.614 183.256C464.466 183.271 464.316 183.278 464.167 183.278ZM464.167 176.552H463.941C463.639 176.58 463.345 176.666 463.077 176.806C462.809 176.945 462.572 177.135 462.38 177.365C462.088 177.708 461.907 178.129 461.86 178.574C461.814 179.019 461.904 179.467 462.118 179.861C462.333 180.256 462.663 180.579 463.066 180.789C463.469 181 463.927 181.088 464.382 181.043C464.991 180.986 465.552 180.694 465.941 180.233C466.33 179.771 466.516 179.177 466.458 178.582V178.582C466.397 177.986 466.098 177.437 465.626 177.055C465.217 176.73 464.706 176.552 464.178 176.552H464.167Z" fill="black"/>
<path id="Vector_7" d="M427.095 215.028L453.516 209.292C453.685 209.256 453.861 209.28 454.013 209.359C454.166 209.437 454.285 209.566 454.349 209.723C454.414 209.879 454.419 210.053 454.365 210.213C454.311 210.373 454.201 210.51 454.054 210.598L428.673 222.684L427.095 215.028Z" fill="black"/>
<path id="Vector_8" d="M461.039 181.308C460.798 181.308 460.562 181.232 460.368 181.092C460.173 180.952 460.03 180.754 459.959 180.528C459.543 179.195 459.493 177.778 459.812 176.419C460.132 175.06 460.811 173.807 461.78 172.785C464.682 169.759 468.675 170.34 469.133 170.417C469.28 170.442 469.421 170.494 469.547 170.572C469.673 170.65 469.782 170.751 469.868 170.87C469.954 170.989 470.014 171.124 470.047 171.266C470.08 171.408 470.083 171.555 470.057 171.698C470.032 171.842 469.977 171.979 469.897 172.102C469.817 172.225 469.713 172.331 469.591 172.414C469.469 172.498 469.331 172.557 469.186 172.588C469.04 172.619 468.89 172.622 468.743 172.596C468.613 172.596 465.576 172.082 463.449 174.3C462.749 175.037 462.259 175.941 462.029 176.922C461.798 177.902 461.836 178.925 462.137 179.887C462.18 180.026 462.195 180.172 462.181 180.317C462.167 180.462 462.124 180.602 462.054 180.731C461.984 180.859 461.889 180.973 461.774 181.065C461.659 181.158 461.527 181.227 461.384 181.27C461.272 181.3 461.156 181.313 461.039 181.308V181.308Z" fill="black"/>
<path id="Vector_9" d="M400.663 182.322C402.125 182.322 403.31 181.163 403.31 179.733C403.31 178.304 402.125 177.145 400.663 177.145C399.201 177.145 398.016 178.304 398.016 179.733C398.016 181.163 399.201 182.322 400.663 182.322Z" fill="black"/>
<path id="Vector_10" d="M426.739 176.225C428.201 176.225 429.386 175.066 429.386 173.636C429.386 172.207 428.201 171.048 426.739 171.048C425.277 171.048 424.092 172.207 424.092 173.636C424.092 175.066 425.277 176.225 426.739 176.225Z" fill="black"/>
<path id="Vector_11" d="M412.966 188.001H412.802C410.811 187.719 408.74 187.233 408.452 185.689C408.413 185.396 408.434 185.098 408.515 184.813C408.596 184.528 408.734 184.262 408.921 184.03C409.029 183.864 409.153 183.665 409.289 183.405C409.788 182.426 409.984 181.327 409.855 180.241L408.707 169.04C408.692 168.895 408.706 168.748 408.749 168.608C408.792 168.469 408.863 168.338 408.958 168.225C409.052 168.112 409.169 168.019 409.3 167.95C409.432 167.881 409.576 167.838 409.725 167.823C409.873 167.809 410.023 167.823 410.166 167.865C410.309 167.907 410.442 167.977 410.558 168.069C410.673 168.161 410.769 168.275 410.84 168.404C410.91 168.533 410.954 168.674 410.969 168.819L412.1 180.036C412.275 181.534 412.004 183.05 411.32 184.401C411.133 184.755 410.975 185.003 410.845 185.214V185.252C411.581 185.545 412.356 185.731 413.147 185.805C413.447 185.826 413.726 185.962 413.924 186.184C414.121 186.406 414.22 186.696 414.199 186.989C414.178 187.283 414.039 187.556 413.812 187.749C413.585 187.942 413.288 188.039 412.988 188.018L412.966 188.001Z" fill="black"/>
<path id="Vector_12" d="M417.474 198.909C416.123 198.9 414.784 198.665 413.514 198.212C413.234 198.102 413.01 197.888 412.891 197.616C412.772 197.344 412.768 197.037 412.881 196.763C412.993 196.489 413.213 196.269 413.491 196.153C413.769 196.037 414.082 196.033 414.363 196.143C414.408 196.143 417.451 197.31 420.019 196.215C420.718 195.89 421.342 195.427 421.851 194.856C422.36 194.285 422.743 193.618 422.978 192.896C423.031 192.761 423.111 192.636 423.213 192.531C423.315 192.425 423.438 192.34 423.573 192.281C423.709 192.222 423.856 192.189 424.004 192.185C424.153 192.181 424.301 192.206 424.44 192.258C424.579 192.31 424.706 192.388 424.814 192.488C424.922 192.588 425.009 192.707 425.069 192.84C425.13 192.973 425.163 193.116 425.167 193.262C425.171 193.407 425.146 193.552 425.093 193.687C424.75 194.682 424.202 195.598 423.483 196.378C422.764 197.158 421.889 197.786 420.913 198.223C419.828 198.682 418.656 198.916 417.474 198.909V198.909Z" fill="black"/>
<path id="Vector_13" d="M362.358 405.503L423.091 407.047L553.362 410.365C541.05 347.707 528.738 285.05 516.426 222.395C481.434 224.567 446.61 228.832 412.151 235.167C411.427 235.3 408.26 235.72 404.051 236.511C390.674 239.111 370.622 243.005 360.797 253.769C351.707 263.725 352.488 278.322 353.235 289.484C355.576 324.47 358.461 363.051 362.358 405.503Z" fill="#6DC8C2"/>
<path id="Vector_14" d="M603.133 415.344L525.075 435.572L475.825 227.55L514.243 222.141C528.931 220.077 543.867 223.649 555.922 232.109C567.978 240.57 576.221 253.262 578.924 267.53L603.133 415.344Z" fill="#6DC8C2"/>
<path id="Vector_15" d="M479.298 238.734L429.075 246.478L425.189 225.868C425.015 224.953 425.22 224.007 425.757 223.237C426.294 222.468 427.121 221.939 428.057 221.764L469.462 214.02C470.367 213.85 471.304 214.026 472.081 214.51C472.859 214.995 473.417 215.751 473.642 216.626L479.298 238.734Z" fill="#6DC8C2"/>
<path id="Vector_16" d="M485.007 325.492L503.433 313.552C509.796 309.429 517.573 307.946 525.053 309.431C532.534 310.915 539.105 315.244 543.321 321.466L598.161 402.396C602.766 409.192 604.421 417.498 602.763 425.487C601.106 433.476 596.27 440.495 589.321 444.998V444.998C578.659 451.906 565.627 454.39 553.092 451.903C540.557 449.416 529.546 442.161 522.481 431.735L476.918 364.495C472.702 358.273 471.186 350.67 472.703 343.355C474.22 336.041 478.645 329.616 485.007 325.492V325.492Z" fill="#6DC8C2"/>
<path id="Vector_17" d="M442.786 235.045C442.512 235.048 442.247 234.953 442.039 234.779C441.831 234.606 441.694 234.364 441.655 234.099L439.619 220.481C439.575 220.187 439.652 219.889 439.834 219.652C440.015 219.414 440.286 219.257 440.586 219.214C440.886 219.172 441.191 219.247 441.434 219.425C441.677 219.602 441.838 219.867 441.881 220.16L443.912 233.756C443.933 233.9 443.926 234.046 443.889 234.187C443.853 234.328 443.789 234.461 443.7 234.578C443.611 234.694 443.5 234.793 443.372 234.867C443.244 234.942 443.103 234.991 442.956 235.012L442.786 235.045Z" fill="black"/>
<path id="Vector_18" d="M458.335 232.13C458.062 232.133 457.796 232.039 457.588 231.865C457.38 231.691 457.244 231.449 457.204 231.184L455.151 217.566C455.129 217.421 455.137 217.273 455.174 217.131C455.211 216.988 455.276 216.855 455.366 216.737C455.456 216.619 455.569 216.52 455.698 216.445C455.827 216.37 455.969 216.321 456.118 216.299C456.267 216.278 456.418 216.286 456.563 216.322C456.709 216.358 456.846 216.422 456.966 216.51C457.086 216.598 457.188 216.708 457.264 216.834C457.341 216.96 457.392 217.1 457.413 217.245L459.467 230.863C459.485 231.008 459.474 231.154 459.434 231.294C459.395 231.434 459.327 231.565 459.236 231.679C459.144 231.794 459.031 231.89 458.901 231.961C458.772 232.033 458.63 232.079 458.482 232.097L458.335 232.13Z" fill="black"/>
<path id="Vector_19" d="M584.201 382.902C584.014 382.902 583.829 382.857 583.664 382.77C583.499 382.683 583.359 382.557 583.256 382.405L544.844 325.72C543 322.733 537.717 315.559 528.044 312.583C523.264 311.139 518.19 310.892 513.287 311.864C513.14 311.896 512.988 311.9 512.839 311.874C512.69 311.848 512.549 311.794 512.422 311.714C512.295 311.634 512.186 311.529 512.101 311.407C512.016 311.286 511.957 311.148 511.928 311.004C511.898 310.859 511.898 310.71 511.928 310.565C511.958 310.421 512.017 310.283 512.102 310.161C512.187 310.04 512.296 309.936 512.423 309.856C512.55 309.776 512.692 309.721 512.84 309.696C518.116 308.648 523.576 308.916 528.718 310.475C539.131 313.673 544.799 321.378 546.756 324.536L585.14 381.182C585.305 381.426 585.365 381.725 585.306 382.012C585.246 382.3 585.073 382.552 584.823 382.714C584.639 382.835 584.423 382.901 584.201 382.902V382.902Z" fill="black"/>
<path id="Vector_20" d="M507.094 409.335C506.906 409.335 506.722 409.29 506.557 409.203C506.392 409.116 506.252 408.99 506.149 408.837L484.564 376.982C483.687 375.683 482.709 374.327 481.487 372.718C472.799 361.251 471.532 353.823 471.424 353.093C467.844 336.388 477.867 329.308 478.297 329.032C478.543 328.863 478.847 328.797 479.143 328.847C479.439 328.898 479.703 329.062 479.875 329.303C480.048 329.543 480.115 329.841 480.063 330.13C480.011 330.42 479.844 330.677 479.598 330.846C479.202 331.117 470.367 337.45 473.647 352.678V352.761C473.647 352.833 474.728 360.095 483.263 371.401C484.508 373.061 485.526 374.427 486.408 375.76L507.999 407.615C508.112 407.782 508.178 407.976 508.187 408.176C508.197 408.376 508.151 408.575 508.054 408.752C507.957 408.929 507.813 409.076 507.637 409.179C507.46 409.282 507.259 409.336 507.054 409.335H507.094Z" fill="black"/>
<path id="Vector_21" d="M456.22 296.354H439.013C437.807 296.344 436.604 296.469 435.427 296.725C433.051 297.278 430.042 298.544 431.298 301.537C431.588 302.194 432.009 302.788 432.538 303.283C433.066 303.778 433.691 304.164 434.375 304.419C440.122 306.631 460.44 314.696 464.953 319.121L479.513 331.29L513.196 311.93C508.816 303.569 503.56 295.676 497.511 288.378C491.742 281.425 484.7 272.796 476.368 268.731C471.803 266.518 466.413 266.435 461.475 267.182C455.491 268.091 449.571 269.362 443.748 270.987C438.657 272.425 433.447 273.98 429.607 277.785L423.911 282.852C423.629 283.083 423.432 283.397 423.349 283.748C423.266 284.098 423.302 284.465 423.45 284.793C423.599 285.122 423.853 285.395 424.173 285.57C424.494 285.746 424.864 285.815 425.229 285.767L449.743 283.494C450.993 283.378 452.248 283.645 453.334 284.259C454.421 284.872 455.285 285.802 455.807 286.917L458.562 292.814C458.74 293.196 458.818 293.616 458.787 294.035C458.755 294.454 458.617 294.859 458.383 295.212C458.15 295.565 457.829 295.854 457.451 296.054C457.073 296.253 456.65 296.357 456.22 296.354V296.354Z" fill="white"/>
<path id="Vector_22" d="M480.135 287.919C479.925 287.919 479.719 287.863 479.541 287.755C479.362 287.648 479.217 287.494 479.123 287.311C474.597 278.383 469.145 273.825 465.383 271.568C461.328 269.129 458.302 268.803 458.268 268.803C457.968 268.773 457.692 268.627 457.502 268.399C457.311 268.17 457.222 267.877 457.252 267.583C457.283 267.29 457.432 267.02 457.666 266.834C457.899 266.648 458.199 266.56 458.5 266.59C459.065 266.646 471.871 268.122 481.125 286.331C481.258 286.594 481.28 286.898 481.184 287.176C481.089 287.454 480.884 287.683 480.616 287.814C480.466 287.885 480.302 287.921 480.135 287.919V287.919Z" fill="black"/>
<path id="Vector_23" d="M232.986 338.696C235.179 338.696 236.957 336.958 236.957 334.813C236.957 332.669 235.179 330.93 232.986 330.93C230.793 330.93 229.015 332.669 229.015 334.813C229.015 336.958 230.793 338.696 232.986 338.696Z" fill="white"/>
<path id="Vector_24" d="M473.415 163.791L450.298 168.216C445.892 168.464 441.566 166.99 438.271 164.118C434.976 161.247 432.983 157.214 432.729 152.905L432.407 147.468L467.612 140.416L473.415 163.791Z" fill="black"/>
<path id="Vector_25" d="M390.64 138.965L468.171 124.503L472.77 148.078L419.347 158.043C412.953 159.236 406.337 157.896 400.953 154.318C395.57 150.741 391.86 145.218 390.64 138.965V138.965Z" fill="black"/>
</g>
<g id="man_in_pic1">
<path id="Vector_26" d="M345.451 215.671C325.852 215.041 309.477 200.35 306.711 180.907L299.765 132.149L325.886 128.586C327.854 128.36 336.096 127.624 343.494 133.222C346.435 135.434 348.913 138.454 351.04 142.946C355.203 151.741 372.828 197.324 353.551 212.004C351.164 213.801 348.397 215.054 345.451 215.671V215.671Z" fill="black"/>
<path id="Vector_27" d="M429.188 443.484H272.224L259.542 256.526C281.668 247.056 304.837 240.112 328.59 235.833C362.528 229.749 389.407 229.494 413.701 232.448C418.871 302.944 424.012 372.987 429.188 443.484Z" fill="black"/>
<path id="Vector_28" d="M344.003 213.835L337.781 197.136C343.907 196.893 348.806 191.688 348.806 185.282C348.806 178.717 343.675 173.401 337.34 173.401C334.625 173.408 332.007 174.393 329.987 176.167L318.272 144.688L270.244 159.805C268.018 160.505 265.955 161.626 264.173 163.106C262.39 164.585 260.923 166.394 259.856 168.428C258.788 170.462 258.141 172.682 257.952 174.961C257.762 177.24 258.034 179.533 258.751 181.709L271.76 221.241C273.741 227.235 278.073 232.215 283.804 235.09C289.536 237.964 296.199 238.498 302.333 236.574L309.318 233.521L315.156 245.723C315.407 246.262 315.843 246.699 316.389 246.956C326.531 251.724 337.849 250.557 344.818 244.191C349.631 239.805 352.296 235.855 353.065 233.272C353.234 232.667 353.167 232.023 352.878 231.463L344.003 213.835Z" fill="white"/>
<path id="Vector_29" d="M309.33 233.543L330.383 224.14C330.522 224.08 330.679 224.069 330.826 224.108C330.973 224.148 331.102 224.235 331.191 224.356C331.28 224.477 331.324 224.624 331.316 224.773C331.308 224.921 331.248 225.063 331.146 225.174L313.951 243.206L309.33 233.543Z" fill="black"/>
<path id="Vector_30" d="M336.378 190.194C335.565 190.195 334.769 189.96 334.092 189.519C333.415 189.078 332.887 188.45 332.575 187.715C332.263 186.981 332.181 186.172 332.339 185.392C332.497 184.611 332.888 183.894 333.463 183.331C334.038 182.768 334.771 182.385 335.568 182.229C336.366 182.073 337.193 182.153 337.945 182.457C338.697 182.761 339.339 183.277 339.791 183.938C340.244 184.599 340.485 185.377 340.485 186.173C340.485 187.238 340.052 188.26 339.282 189.014C338.512 189.768 337.468 190.192 336.378 190.194V190.194ZM336.378 184.369C336.012 184.368 335.654 184.474 335.349 184.672C335.044 184.87 334.806 185.153 334.665 185.483C334.524 185.814 334.487 186.178 334.558 186.53C334.63 186.881 334.806 187.204 335.065 187.457C335.324 187.71 335.654 187.883 336.013 187.952C336.373 188.022 336.745 187.986 337.083 187.848C337.421 187.711 337.71 187.478 337.913 187.18C338.116 186.881 338.223 186.531 338.222 186.173C338.222 185.694 338.028 185.236 337.682 184.898C337.336 184.559 336.867 184.369 336.378 184.369V184.369Z" fill="black"/>
<path id="Vector_31" d="M333.482 187.954C333.204 187.956 332.934 187.857 332.725 187.676C332.516 187.495 332.383 187.246 332.351 186.975C332.063 184.58 332.623 182.644 334.014 181.211C336.627 178.517 341.209 178.766 341.401 178.777C341.701 178.796 341.982 178.93 342.181 179.15C342.379 179.371 342.481 179.659 342.462 179.953C342.443 180.246 342.306 180.52 342.081 180.715C341.855 180.909 341.56 181.008 341.26 180.99C341.226 180.99 337.527 180.796 335.649 182.738C334.732 183.684 334.393 184.983 334.597 186.72C334.63 187.011 334.545 187.302 334.359 187.531C334.174 187.76 333.903 187.908 333.607 187.943L333.482 187.954Z" fill="black"/>
<path id="Vector_32" d="M291.801 218.935C290.34 218.952 288.895 218.63 287.587 217.995C287.34 217.841 287.164 217.601 287.095 217.324C287.025 217.047 287.068 216.754 287.214 216.507C287.36 216.26 287.598 216.078 287.878 215.998C288.159 215.919 288.459 215.948 288.718 216.081C288.978 216.219 294.798 219.3 300.755 211.075C300.837 210.949 300.945 210.84 301.071 210.756C301.198 210.672 301.341 210.614 301.491 210.585C301.641 210.556 301.796 210.558 301.946 210.589C302.095 210.621 302.237 210.682 302.362 210.768C302.487 210.855 302.592 210.965 302.672 211.093C302.752 211.22 302.805 211.363 302.827 211.511C302.849 211.659 302.84 211.81 302.801 211.955C302.762 212.099 302.693 212.235 302.599 212.353C298.735 217.69 294.708 218.935 291.801 218.935Z" fill="black"/>
<path id="Vector_33" d="M298.747 189.32C300.115 189.32 301.224 188.235 301.224 186.897C301.224 185.559 300.115 184.475 298.747 184.475C297.378 184.475 296.269 185.559 296.269 186.897C296.269 188.235 297.378 189.32 298.747 189.32Z" fill="black"/>
<path id="Vector_34" d="M269.747 199.581C271.115 199.581 272.224 198.496 272.224 197.158C272.224 195.82 271.115 194.735 269.747 194.735C268.378 194.735 267.269 195.82 267.269 197.158C267.269 198.496 268.378 199.581 269.747 199.581Z" fill="black"/>
<path id="Vector_35" d="M269.119 210.422C263.434 210.422 258.157 205.942 256.794 199.553C255.255 192.362 259.254 185.437 265.702 184.115C267.299 183.806 268.945 183.84 270.526 184.216C272.107 184.591 273.586 185.298 274.86 186.289C277.62 188.399 279.513 191.408 280.194 194.769V194.769C280.947 198.114 280.446 201.612 278.78 204.625C278.019 206.033 276.955 207.261 275.659 208.225C274.364 209.189 272.869 209.865 271.279 210.206C270.568 210.35 269.845 210.422 269.119 210.422V210.422ZM267.88 186.084C267.31 186.087 266.741 186.146 266.183 186.261C260.951 187.329 257.738 193.082 259.022 199.077C260.306 205.073 265.606 209.084 270.833 208.016C272.104 207.739 273.299 207.193 274.333 206.418C275.367 205.642 276.214 204.654 276.817 203.525C278.214 200.978 278.628 198.025 277.982 195.206V195.206C277.422 192.358 275.83 189.805 273.497 188.015C271.89 186.792 269.916 186.121 267.88 186.107V186.084Z" fill="black"/>
<path id="Vector_36" d="M280.052 195.206C279.784 195.204 279.525 195.109 279.322 194.937C279.119 194.766 278.984 194.529 278.943 194.27C278.901 194.011 278.955 193.746 279.095 193.522C279.236 193.298 279.452 193.13 279.707 193.048L289.923 189.829C290.201 189.761 290.496 189.8 290.746 189.936C290.997 190.073 291.185 190.297 291.273 190.564C291.361 190.832 291.341 191.121 291.219 191.375C291.096 191.629 290.88 191.828 290.613 191.931L280.403 195.156C280.289 195.189 280.171 195.205 280.052 195.206V195.206Z" fill="black"/>
<path id="Vector_37" d="M285.132 207.009C284.555 207.024 283.981 206.916 283.452 206.691C282.922 206.467 282.449 206.132 282.066 205.71C280.935 204.366 281.127 202.524 281.664 201.356C282.048 200.539 282.669 199.85 283.452 199.376L278.797 187.207C278.711 186.938 278.734 186.646 278.861 186.393C278.989 186.139 279.21 185.942 279.481 185.843C279.751 185.744 280.05 185.75 280.316 185.86C280.582 185.97 280.796 186.175 280.912 186.433L286.342 200.588L285.211 200.953C284.886 201.058 284.586 201.225 284.328 201.446C284.071 201.666 283.861 201.935 283.712 202.236C283.508 202.673 283.265 203.658 283.78 204.255C284.295 204.852 285.477 205.029 286.574 204.338C286.698 204.249 286.839 204.185 286.989 204.151C287.139 204.117 287.294 204.113 287.445 204.139C287.597 204.166 287.741 204.222 287.869 204.305C287.998 204.388 288.107 204.496 288.192 204.622C288.276 204.747 288.333 204.889 288.36 205.037C288.386 205.185 288.382 205.337 288.346 205.483C288.311 205.63 288.245 205.767 288.154 205.888C288.062 206.009 287.946 206.11 287.813 206.185C287.02 206.708 286.088 206.994 285.132 207.009V207.009Z" fill="black"/>
<path id="Vector_38" d="M293.861 163.656C308.178 160.728 317.987 149.951 315.77 139.584C313.553 129.217 300.151 123.186 285.834 126.113C271.517 129.041 261.708 139.818 263.925 150.185C266.142 160.552 279.545 166.583 293.861 163.656Z" fill="black"/>
<path id="Vector_39" d="M337.532 163.738L323.34 167.344C319.478 168.325 315.375 167.765 311.934 165.788C308.493 163.811 305.996 160.579 304.991 156.802L301.999 145.54L330.756 138.233L337.532 163.738Z" fill="black"/>
<path id="Vector_40" d="M257.845 177.865C268.542 177.865 277.213 169.386 277.213 158.926C277.213 148.466 268.542 139.987 257.845 139.987C247.149 139.987 238.478 148.466 238.478 158.926C238.478 169.386 247.149 177.865 257.845 177.865Z" fill="black"/>
<path id="Vector_41" d="M310.665 184.453C310.401 184.453 310.146 184.364 309.942 184.2C309.739 184.036 309.6 183.808 309.551 183.555C309.501 183.301 309.544 183.039 309.67 182.814C309.797 182.588 310.001 182.412 310.246 182.317L331.424 174.021C331.563 173.957 331.714 173.923 331.868 173.919C332.021 173.915 332.174 173.941 332.317 173.997C332.46 174.053 332.589 174.136 332.698 174.242C332.807 174.349 332.892 174.475 332.949 174.615C333.006 174.754 333.033 174.904 333.029 175.054C333.025 175.204 332.99 175.352 332.925 175.488C332.861 175.625 332.769 175.747 332.654 175.847C332.54 175.948 332.406 176.024 332.261 176.073L311.083 184.37C310.95 184.422 310.808 184.45 310.665 184.453Z" fill="black"/>
<path id="Vector_42" d="M230.695 360.741L225.746 425.38L227.482 441.238H272.071L266.766 362.998L230.695 360.741Z" fill="white"/>
<path id="Vector_43" d="M273.282 442.344H226.464L224.614 425.396L229.654 359.574L267.829 361.958L273.282 442.344ZM228.5 440.132H270.861L265.702 364.038L231.764 361.914L226.882 425.363L228.5 440.132Z" fill="black"/>
<path id="Vector_44" d="M259.543 256.531C257.644 257.282 255.817 258.197 254.084 259.264C241.131 267.251 236.866 281.942 233.585 296.274C230.101 311.512 224.971 346.57 223.172 373.795C237.223 374.669 253.626 375.548 267.676 376.428L259.543 256.531Z" fill="black"/>
<path id="Vector_45" d="M329.014 263.523C321.507 263.452 314.176 261.3 307.87 257.317C307.632 257.151 307.468 256.902 307.413 256.621C307.358 256.341 307.417 256.05 307.576 255.811C307.736 255.571 307.984 255.401 308.268 255.336C308.553 255.272 308.852 255.317 309.103 255.464C312.616 257.676 322.113 262.721 334.122 260.934C350.678 258.478 358.879 245.33 360.356 242.719C360.424 242.586 360.519 242.468 360.635 242.371C360.751 242.275 360.886 242.203 361.032 242.158C361.177 242.114 361.33 242.099 361.482 242.114C361.633 242.129 361.78 242.174 361.914 242.246C362.047 242.318 362.164 242.416 362.258 242.533C362.352 242.65 362.421 242.785 362.46 242.929C362.499 243.073 362.509 243.223 362.487 243.37C362.466 243.518 362.414 243.659 362.335 243.787C360.769 246.553 352.064 260.508 334.461 263.119C332.658 263.389 330.837 263.524 329.014 263.523Z" fill="white"/>
<path id="Vector_46" d="M300.608 198.889C294.951 198.889 289.753 194.586 288.435 188.429C286.959 181.466 290.992 174.739 297.452 173.412C303.911 172.084 310.365 176.681 311.853 183.645C313.34 190.609 309.302 197.346 302.848 198.662C302.111 198.815 301.361 198.891 300.608 198.889V198.889ZM299.674 175.398C299.08 175.396 298.486 175.456 297.904 175.575C292.672 176.648 289.42 182.212 290.653 187.976C291.886 193.74 297.14 197.567 302.373 196.5C307.605 195.432 310.857 189.862 309.624 184.098C308.527 178.982 304.284 175.398 299.686 175.398H299.674Z" fill="black"/>
<path id="Vector_47" d="M405.505 338.798L266.545 354.535L264.893 335.33L401.461 319.555L405.505 338.798Z" fill="#C7B8F8"/>
<path id="Vector_48" d="M415.409 381.019L267.993 397.32L266.573 376.555L410.765 360.105L415.409 381.019Z" fill="#C7B8F8"/>
<path id="Vector_49" d="M314.138 314.626C314.138 314.626 295.619 316.23 285.958 300.007C285.051 298.476 283.816 297.155 282.337 296.135C279.798 294.387 275.997 293.292 272.071 297.678C272.071 297.678 265.691 289.42 260.979 294.138C260.979 294.138 257.619 298.303 262.11 305.323C262.11 305.323 254.932 308.238 262.042 320.512C263.134 322.398 264.197 324.301 265.142 326.259C268.966 334.146 282.564 356.543 314.975 359.795C317.088 360.016 319.092 360.824 320.75 362.124L397.586 421.779C404.664 427.325 412.932 431.237 421.772 433.223C434.42 435.989 457.187 434.539 468.969 418.477C475.887 408.911 478.875 397.152 477.341 385.532L473.771 357.156L409.775 367.412L345.174 327.802C343.017 326.473 341.261 324.608 340.083 322.398C336.333 315.401 326.887 299.166 316.406 292.103C316.044 291.859 315.687 291.622 315.337 291.367C313.074 289.708 310.246 288.336 307.389 288.292C302.864 288.225 299.029 292.313 301.824 296.461C303.051 298.287 305.025 299.78 306.852 301.008C308.747 302.269 310.358 303.894 311.587 305.785C312.817 307.676 313.638 309.792 314.002 312.004C314.136 312.872 314.182 313.75 314.138 314.626V314.626Z" fill="white"/>
<path id="Vector_50" d="M294.046 326.154C293.873 326.153 293.703 326.113 293.549 326.038C290.538 324.604 287.718 322.817 285.149 320.716C276.444 313.576 272.637 304.388 270.974 297.939C270.899 297.654 270.943 297.352 271.095 297.099C271.248 296.846 271.497 296.662 271.788 296.589C272.08 296.516 272.388 296.558 272.647 296.708C272.906 296.857 273.094 297.101 273.169 297.385C274.747 303.52 278.361 312.248 286.603 319.013C289.024 320.997 291.683 322.685 294.521 324.041C294.752 324.15 294.938 324.333 295.049 324.559C295.16 324.785 295.188 325.042 295.13 325.286C295.073 325.53 294.932 325.748 294.73 325.904C294.529 326.06 294.28 326.144 294.024 326.143L294.046 326.154Z" fill="black"/>
<path id="Vector_51" d="M286.784 335.502C286.609 335.504 286.436 335.464 286.28 335.386C284.762 334.718 283.349 333.843 282.083 332.786C281.648 332.443 281.099 332.017 280.386 331.453C271.902 325.031 265.238 316.131 261.075 305.716C261.013 305.579 260.98 305.432 260.978 305.283C260.976 305.133 261.005 304.985 261.063 304.847C261.121 304.709 261.207 304.584 261.316 304.479C261.425 304.374 261.554 304.292 261.696 304.237C261.838 304.183 261.99 304.157 262.143 304.162C262.296 304.166 262.446 304.2 262.584 304.263C262.723 304.326 262.847 304.415 262.949 304.526C263.052 304.637 263.13 304.767 263.18 304.908C267.201 314.953 273.627 323.526 281.772 329.705C282.524 330.258 283.079 330.712 283.52 331.06C284.661 332.021 285.939 332.813 287.315 333.411C287.541 333.524 287.721 333.708 287.827 333.932C287.933 334.157 287.959 334.411 287.9 334.652C287.841 334.893 287.702 335.107 287.503 335.262C287.305 335.416 287.059 335.5 286.806 335.502H286.784Z" fill="black"/>
<path id="Vector_52" d="M319.805 443.462H224.699V423.389H319.805C321.07 423.39 322.282 423.882 323.175 424.756C324.069 425.63 324.572 426.815 324.574 428.051V438.804C324.572 440.04 324.069 441.225 323.175 442.098C322.281 442.971 321.069 443.462 319.805 443.462V443.462Z" fill="black"/>
<path id="Vector_53" d="M486.346 356.393L411.173 368.695L383.569 230.799L403.163 231.07C415.319 231.173 427.122 235.081 436.841 242.222C441.906 245.963 446.215 250.594 449.545 255.878C451.937 259.717 453.781 263.858 455.026 268.185L486.346 356.393Z" fill="black"/>
<path id="Vector_54" d="M427.587 377.822C427.389 377.826 427.194 377.778 427.022 377.683L410.194 368.601C409.944 368.453 409.762 368.216 409.686 367.94C409.611 367.664 409.647 367.37 409.788 367.12C409.93 366.87 410.164 366.682 410.443 366.598C410.723 366.513 411.024 366.537 411.286 366.665L428.113 375.747C428.334 375.867 428.508 376.055 428.607 376.282C428.706 376.509 428.724 376.762 428.659 377.001C428.594 377.239 428.449 377.449 428.248 377.598C428.047 377.747 427.8 377.826 427.548 377.822H427.587Z" fill="black"/>
</g>
</g>
</g>
</svg>
