<svg width="909" height="668" viewBox="0 0 909 668" fill="none" xmlns="http://www.w3.org/2000/svg">
<g id="picture2">
<rect x="1.5" y="1.5" width="906" height="665" fill="white"/>
<rect x="1.5" y="1.5" width="906" height="665" stroke="black" strokeWidth="3"/>
<g id="figure_group">
<path id="Vector" d="M713.458 499.379H196.014V621.467H713.458V499.379Z" fill="#C7B8F8"/>
<path id="Vector_2" d="M557.939 581.686C557.871 581.692 557.803 581.692 557.735 581.686C557.558 581.659 557.389 581.598 557.236 581.506C557.082 581.413 556.949 581.292 556.843 581.148C556.737 581.004 556.661 580.841 556.618 580.667C556.575 580.494 556.567 580.314 556.594 580.137L618.694 169.594C618.973 167.75 618.85 165.867 618.334 164.075C617.819 162.282 616.922 160.622 615.706 159.208C614.49 157.794 612.983 156.659 611.288 155.881C609.592 155.103 607.749 154.7 605.884 154.699H530.295C527.255 154.697 524.312 155.765 521.98 157.714C519.648 159.664 518.076 162.371 517.539 165.363L443.892 575.043C443.87 575.226 443.81 575.403 443.717 575.563C443.623 575.722 443.498 575.861 443.35 575.971C443.201 576.081 443.031 576.159 442.851 576.201C442.671 576.242 442.484 576.247 442.302 576.214C442.121 576.181 441.947 576.112 441.793 576.009C441.639 575.907 441.508 575.775 441.407 575.62C441.305 575.465 441.237 575.291 441.205 575.109C441.174 574.927 441.18 574.74 441.223 574.561L514.87 164.88C515.516 161.26 517.416 157.983 520.236 155.624C523.057 153.264 526.618 151.972 530.295 151.975H605.85C608.107 151.975 610.337 152.463 612.388 153.404C614.439 154.345 616.263 155.718 617.734 157.429C619.206 159.14 620.291 161.148 620.915 163.317C621.539 165.486 621.687 167.764 621.35 169.995L559.284 580.531C559.235 580.853 559.072 581.146 558.825 581.358C558.579 581.57 558.264 581.686 557.939 581.686Z" fill="black"/>
<path id="Vector_3" d="M602.142 285.746H494.765C494.405 285.746 494.059 285.603 493.805 285.348C493.55 285.094 493.407 284.748 493.407 284.388C493.407 284.028 493.55 283.682 493.805 283.427C494.059 283.173 494.405 283.029 494.765 283.029H602.142C602.502 283.029 602.847 283.173 603.102 283.427C603.357 283.682 603.5 284.028 603.5 284.388C603.5 284.748 603.357 285.094 603.102 285.348C602.847 285.603 602.502 285.746 602.142 285.746Z" fill="black"/>
<path id="Vector_4" d="M582.369 420.108H470.979C470.618 420.108 470.273 419.965 470.018 419.71C469.763 419.455 469.62 419.11 469.62 418.75C469.62 418.389 469.763 418.044 470.018 417.789C470.273 417.534 470.618 417.391 470.979 417.391H582.369C582.73 417.391 583.075 417.534 583.33 417.789C583.585 418.044 583.728 418.389 583.728 418.75C583.728 419.11 583.585 419.455 583.33 419.71C583.075 419.965 582.73 420.108 582.369 420.108Z" fill="black"/>
<path id="Vector_5" d="M665.03 581.685C664.696 581.688 664.373 581.567 664.123 581.347C663.872 581.126 663.711 580.821 663.671 580.49L616.561 183.694C616.518 183.334 616.62 182.971 616.844 182.686C617.068 182.401 617.396 182.216 617.757 182.173C618.117 182.13 618.48 182.231 618.765 182.456C619.05 182.68 619.235 183.008 619.278 183.368L666.402 580.171C666.444 580.528 666.342 580.888 666.12 581.171C665.897 581.453 665.571 581.636 665.213 581.679L665.03 581.685Z" fill="black"/>
<path id="Vector_6" d="M517.587 235.96C521.645 235.96 524.936 232.67 524.936 228.611C524.936 224.552 521.645 221.262 517.587 221.262C513.528 221.262 510.238 224.552 510.238 228.611C510.238 232.67 513.528 235.96 517.587 235.96Z" fill="#6DC8C2"/>
<path id="Vector_7" d="M569.213 266.579C574.469 266.579 578.729 262.318 578.729 257.063C578.729 251.808 574.469 247.547 569.213 247.547C563.958 247.547 559.697 251.808 559.697 257.063C559.697 262.318 563.958 266.579 569.213 266.579Z" fill="#C7B8F8"/>
<path id="Vector_8" d="M525.825 284.218C533.163 284.218 539.111 278.27 539.111 270.933C539.111 263.595 533.163 257.647 525.825 257.647C518.488 257.647 512.54 263.595 512.54 270.933C512.54 278.27 518.488 284.218 525.825 284.218Z" fill="#FFBB45"/>
<path id="Vector_9" d="M523.21 259.148C522.314 259.141 521.444 258.839 520.737 258.287C520.03 257.736 519.524 256.967 519.298 256.099L515.522 241.156C515.334 240.414 515.362 239.633 515.601 238.906C515.84 238.178 516.282 237.534 516.874 237.049C517.466 236.563 518.184 236.255 518.944 236.163C519.704 236.07 520.474 236.195 521.166 236.524L538.914 244.953C539.607 245.279 540.192 245.795 540.603 246.442C541.013 247.088 541.231 247.838 541.231 248.604C541.231 249.369 541.013 250.119 540.603 250.766C540.192 251.412 539.607 251.928 538.914 252.254L524.915 258.748C524.383 259.003 523.801 259.14 523.21 259.148V259.148ZM519.434 238.84C519.129 238.845 518.835 238.953 518.599 239.146C518.4 239.304 518.252 239.517 518.174 239.758C518.096 240 518.09 240.259 518.157 240.504L521.933 255.447C521.98 255.635 522.069 255.811 522.191 255.961C522.314 256.112 522.469 256.233 522.644 256.317C522.819 256.4 523.011 256.444 523.205 256.445C523.399 256.447 523.591 256.405 523.767 256.323L537.739 249.809C537.965 249.701 538.155 249.532 538.289 249.32C538.422 249.109 538.493 248.864 538.493 248.614C538.493 248.364 538.422 248.119 538.289 247.907C538.155 247.695 537.965 247.526 537.739 247.418L519.991 238.989C519.818 238.9 519.628 238.849 519.434 238.84Z" fill="black"/>
<path id="Vector_10" d="M545.971 283.036H591.994C590.348 278.241 587.246 274.08 583.12 271.134C578.995 268.189 574.052 266.605 568.982 266.605C563.913 266.605 558.97 268.189 554.844 271.134C550.719 274.08 547.616 278.241 545.971 283.036V283.036Z" fill="#FFC1EB"/>
<path id="Vector_11" d="M575.904 276.767C573.328 276.767 570.811 276.003 568.67 274.572C566.529 273.142 564.86 271.108 563.874 268.729C562.889 266.35 562.631 263.732 563.133 261.206C563.636 258.68 564.876 256.36 566.697 254.539C568.518 252.718 570.838 251.478 573.364 250.976C575.889 250.474 578.507 250.731 580.886 251.717C583.266 252.702 585.299 254.371 586.73 256.513C588.161 258.654 588.924 261.171 588.924 263.746C588.921 267.198 587.548 270.508 585.107 272.949C582.666 275.39 579.356 276.763 575.904 276.767ZM575.904 253.443C573.866 253.443 571.874 254.047 570.179 255.179C568.485 256.311 567.164 257.921 566.384 259.803C565.604 261.686 565.4 263.758 565.798 265.756C566.196 267.755 567.177 269.591 568.618 271.032C570.059 272.473 571.895 273.454 573.894 273.852C575.892 274.25 577.964 274.046 579.847 273.266C581.729 272.486 583.339 271.165 584.471 269.471C585.603 267.776 586.207 265.784 586.207 263.746C586.204 261.015 585.117 258.396 583.185 256.465C581.254 254.533 578.635 253.446 575.904 253.443V253.443Z" fill="#FB6D6D"/>
<path id="Vector_12" d="M554.848 297.999C553.546 297.99 552.249 297.83 550.983 297.524C546.528 296.484 541.875 293.815 537.888 290.005C533.901 286.194 531.008 281.671 529.738 277.27C528.42 272.61 529.058 268.61 531.565 265.995C534.071 263.38 538.031 262.544 542.738 263.645C547.193 264.684 551.846 267.353 555.84 271.17C559.833 274.987 562.72 279.504 563.99 283.905C565.308 288.558 564.669 292.559 562.156 295.174C560.39 297.041 557.864 297.999 554.848 297.999ZM538.914 265.886C537.933 265.831 536.952 265.979 536.031 266.321C535.11 266.662 534.27 267.189 533.562 267.869C531.755 269.764 531.334 272.834 532.38 276.529C533.494 280.469 536.115 284.557 539.763 288.035C543.41 291.513 547.614 293.951 551.601 294.882C555.337 295.751 558.394 295.194 560.193 293.299C561.993 291.404 562.421 288.334 561.375 284.646C560.261 280.7 557.64 276.611 553.992 273.133C550.345 269.649 546.141 267.217 542.147 266.287C541.09 266.032 540.008 265.898 538.921 265.886H538.914Z" fill="#FB6D6D"/>
<path id="Vector_13" d="M524.488 367.693C524.209 367.693 523.938 367.608 523.709 367.449C523.481 367.29 523.307 367.065 523.211 366.803C518.232 353.219 507.942 342.209 507.84 342.1C507.632 341.833 507.532 341.497 507.559 341.159C507.586 340.822 507.738 340.506 507.986 340.275C508.233 340.043 508.558 339.913 508.897 339.909C509.236 339.905 509.564 340.028 509.817 340.253C510.258 340.715 520.589 351.799 525.765 365.88C525.826 366.047 525.854 366.225 525.847 366.404C525.84 366.583 525.798 366.758 525.723 366.92C525.648 367.082 525.541 367.228 525.41 367.349C525.278 367.47 525.124 367.564 524.956 367.625C524.805 367.674 524.647 367.697 524.488 367.693Z" fill="black"/>
<path id="Vector_14" d="M529.378 369.099C529.017 369.099 528.672 368.956 528.417 368.701C528.162 368.447 528.019 368.101 528.019 367.741V355.909C528.019 355.549 528.162 355.203 528.417 354.948C528.672 354.694 529.017 354.55 529.378 354.55C529.738 354.55 530.083 354.694 530.338 354.948C530.593 355.203 530.736 355.549 530.736 355.909V367.741C530.736 367.919 530.701 368.096 530.633 368.261C530.564 368.425 530.464 368.575 530.338 368.701C530.212 368.827 530.062 368.927 529.897 368.996C529.733 369.064 529.556 369.099 529.378 369.099Z" fill="black"/>
<path id="Vector_15" d="M554.848 385.536C554.848 382.708 553.724 379.995 551.725 377.996C549.725 375.996 547.012 374.872 544.184 374.872H541.807V366.81H512.39V374.893H510.02C508.62 374.893 507.233 375.169 505.939 375.704C504.645 376.24 503.47 377.026 502.48 378.016C501.489 379.006 500.704 380.182 500.168 381.476C499.632 382.769 499.356 384.156 499.356 385.556C499.356 388.385 500.48 391.097 502.48 393.097C504.479 395.096 507.192 396.22 510.02 396.22C507.193 396.22 504.482 397.342 502.482 399.341C500.482 401.339 499.358 404.05 499.356 406.877V406.877C499.356 408.277 499.632 409.664 500.168 410.958C500.704 412.251 501.489 413.427 502.48 414.417C503.47 415.407 504.645 416.193 505.939 416.729C507.233 417.265 508.62 417.54 510.02 417.54H544.171C545.571 417.54 546.958 417.265 548.252 416.729C549.545 416.193 550.721 415.407 551.711 414.417C552.701 413.427 553.487 412.251 554.023 410.958C554.559 409.664 554.834 408.277 554.834 406.877V406.877C554.833 404.05 553.708 401.339 551.709 399.341C549.709 397.342 546.998 396.22 544.171 396.22C545.574 396.222 546.964 395.947 548.26 395.41C549.557 394.874 550.735 394.087 551.727 393.094C552.719 392.102 553.505 390.923 554.041 389.626C554.576 388.329 554.851 386.939 554.848 385.536V385.536Z" fill="#6DC8C2"/>
<path id="Vector_16" d="M544.612 394.889H532.57V397.605H544.612V394.889Z" fill="black"/>
<path id="Vector_17" d="M515.685 394.821H509.375V397.538H515.685V394.821Z" fill="black"/>
<path id="Vector_18" d="M527.095 369.316C535.363 369.316 542.065 367.92 542.065 366.199C542.065 364.477 535.363 363.081 527.095 363.081C518.828 363.081 512.125 364.477 512.125 366.199C512.125 367.92 518.828 369.316 527.095 369.316Z" fill="black"/>
<path id="Vector_19" d="M529.377 355.916C533.279 355.916 536.441 352.753 536.441 348.852C536.441 344.951 533.279 341.788 529.377 341.788C525.476 341.788 522.314 344.951 522.314 348.852C522.314 352.753 525.476 355.916 529.377 355.916Z" fill="#FFBB45"/>
<path id="Vector_20" d="M506.285 345.85C510.464 345.85 513.851 342.462 513.851 338.283C513.851 334.105 510.464 330.717 506.285 330.717C502.106 330.717 498.718 334.105 498.718 338.283C498.718 342.462 502.106 345.85 506.285 345.85Z" fill="#FFBB45"/>
<path id="Vector_21" d="M494.973 531.297L443.108 555.328C441.739 555.962 441.144 557.585 441.778 558.953L442.78 561.116C443.414 562.484 445.037 563.08 446.406 562.446L498.271 538.414C499.64 537.781 500.235 536.157 499.601 534.789L498.599 532.626C497.965 531.258 496.342 530.663 494.973 531.297Z" fill="black"/>
<path id="Vector_22" d="M497.509 514.811L471.699 521.603L436.828 537.754L442.778 550.598C443.323 551.772 444.311 552.682 445.526 553.128C446.741 553.573 448.083 553.519 449.258 552.975L495.152 531.709L497.509 514.811Z" fill="white"/>
<path id="Vector_23" d="M491.559 541.537L520.915 527.953C521.992 527.45 522.826 526.541 523.234 525.425C523.643 524.308 523.593 523.076 523.095 521.996V521.996C521.042 517.565 517.312 514.13 512.727 512.447C508.142 510.765 503.076 510.972 498.643 513.024V513.024C494.212 515.077 490.777 518.807 489.094 523.392C487.412 527.977 487.619 533.043 489.671 537.476L491.559 541.537Z" fill="black"/>
<path id="Vector_24" d="M337.256 591.201C336.925 591.204 336.605 591.087 336.355 590.871C336.105 590.654 335.942 590.354 335.897 590.026L317.62 454.986C317.596 454.807 317.607 454.626 317.653 454.452C317.699 454.278 317.779 454.114 317.888 453.971C317.997 453.828 318.133 453.708 318.289 453.617C318.444 453.527 318.616 453.468 318.795 453.444C318.973 453.42 319.155 453.431 319.329 453.477C319.503 453.523 319.666 453.603 319.809 453.712C319.952 453.821 320.072 453.957 320.163 454.113C320.254 454.268 320.313 454.44 320.337 454.619L338.601 589.66C338.649 590.016 338.554 590.377 338.336 590.664C338.118 590.951 337.796 591.139 337.439 591.188L337.256 591.201Z" fill="black"/>
<path id="Vector_25" d="M238.111 591.201H237.921C237.564 591.151 237.242 590.961 237.026 590.673C236.809 590.385 236.716 590.023 236.766 589.666L255.859 454.612C255.909 454.251 256.101 453.926 256.391 453.707C256.682 453.488 257.047 453.393 257.408 453.443C257.768 453.494 258.093 453.685 258.312 453.976C258.531 454.266 258.626 454.632 258.576 454.992L239.456 590.033C239.41 590.357 239.249 590.654 239.002 590.868C238.755 591.083 238.438 591.201 238.111 591.201Z" fill="black"/>
<path id="Vector_26" d="M330.498 546.441H245.637C245.277 546.441 244.931 546.298 244.676 546.043C244.422 545.789 244.278 545.443 244.278 545.083C244.278 544.723 244.422 544.377 244.676 544.122C244.931 543.868 245.277 543.724 245.637 543.724H330.498C330.858 543.724 331.203 543.868 331.458 544.122C331.713 544.377 331.856 544.723 331.856 545.083C331.856 545.443 331.713 545.789 331.458 546.043C331.203 546.298 330.858 546.441 330.498 546.441Z" fill="black"/>
<path id="Vector_27" d="M245.644 454.802H327.869C333.053 454.802 337.256 450.599 337.256 445.415V432.32C337.256 427.136 333.053 422.933 327.869 422.933H245.644C240.46 422.933 236.257 427.136 236.257 432.32V445.415C236.257 450.599 240.46 454.802 245.644 454.802Z" fill="#FFC1EB"/>
<path id="Vector_28" d="M242.743 386.256H327.013V351.8H248.571C245.924 357.695 244.096 363.924 243.137 370.315C242.363 375.593 242.231 380.946 242.743 386.256V386.256Z" fill="black"/>
<path id="Vector_29" d="M412.057 582.392H354.895C353.387 582.392 352.164 583.615 352.164 585.123V587.507C352.164 589.015 353.387 590.237 354.895 590.237H412.057C413.565 590.237 414.788 589.015 414.788 587.507V585.123C414.788 583.615 413.565 582.392 412.057 582.392Z" fill="black"/>
<path id="Vector_30" d="M421.301 568.468L395.023 563.782H356.593V577.977C356.593 579.272 357.107 580.514 358.023 581.43C358.939 582.346 360.181 582.861 361.476 582.861H412.057L421.301 568.468Z" fill="white"/>
<path id="Vector_31" d="M453.883 536.994L469.682 525.447C474.589 521.861 477.874 516.474 478.815 510.469C479.756 504.464 478.277 498.331 474.701 493.415L405.523 398.557C400.264 391.345 392.355 386.518 383.537 385.137C374.719 383.756 365.713 385.935 358.501 391.194V391.194C351.29 396.453 346.462 404.362 345.082 413.18C343.701 421.998 345.88 431.004 351.139 438.216L419.209 531.567C423.088 536.884 428.92 540.443 435.422 541.461C441.925 542.478 448.565 540.871 453.883 536.994V536.994Z" fill="black"/>
<path id="Vector_32" d="M289.718 434.554H409.938V410.931C409.938 401.843 406.328 393.128 399.902 386.702C393.476 380.275 384.76 376.665 375.672 376.665H242.648V387.485C242.648 393.666 243.866 399.787 246.231 405.498C248.597 411.208 252.064 416.397 256.435 420.768C260.806 425.139 265.994 428.606 271.705 430.971C277.416 433.337 283.537 434.554 289.718 434.554Z" fill="black"/>
<path id="Vector_33" d="M367.419 567.11H386.967C393.052 567.11 398.888 564.692 403.191 560.39C407.494 556.087 409.911 550.251 409.911 544.166V431.655H342.601V542.291C342.6 545.551 343.241 548.779 344.488 551.79C345.735 554.802 347.563 557.538 349.868 559.843C352.173 562.147 354.909 563.975 357.921 565.222C360.932 566.469 364.16 567.111 367.419 567.11V567.11Z" fill="black"/>
<path id="Vector_34" d="M445.814 537.462C445.597 537.463 445.382 537.412 445.188 537.313C444.994 537.213 444.827 537.069 444.7 536.892L407.256 483.757C407.154 483.61 407.082 483.444 407.045 483.269C407.007 483.094 407.004 482.914 407.036 482.738C407.068 482.562 407.135 482.394 407.232 482.243C407.329 482.093 407.455 481.964 407.602 481.862C407.749 481.76 407.915 481.688 408.09 481.651C408.265 481.613 408.445 481.61 408.621 481.643C408.797 481.675 408.965 481.741 409.115 481.838C409.266 481.935 409.395 482.061 409.497 482.208L446.921 535.323C447.025 535.468 447.098 535.633 447.138 535.807C447.177 535.981 447.182 536.162 447.151 536.338C447.121 536.514 447.056 536.682 446.961 536.833C446.866 536.984 446.741 537.115 446.595 537.218C446.366 537.377 446.094 537.463 445.814 537.462V537.462Z" fill="white"/>
<path id="Vector_35" d="M363.915 568.21C363.554 568.21 363.209 568.067 362.954 567.812C362.699 567.557 362.556 567.212 362.556 566.851V428.849C362.553 424.46 360.808 420.252 357.704 417.149C354.601 414.045 350.393 412.3 346.004 412.297H293.175C286.905 412.289 280.893 409.795 276.46 405.362C272.026 400.928 269.532 394.917 269.525 388.646V376.665C269.525 376.305 269.668 375.959 269.923 375.705C270.177 375.45 270.523 375.307 270.883 375.307C271.243 375.307 271.589 375.45 271.844 375.705C272.098 375.959 272.242 376.305 272.242 376.665V388.646C272.247 394.197 274.454 399.518 278.379 403.443C282.303 407.367 287.625 409.574 293.175 409.58H346.004C351.112 409.587 356.009 411.619 359.621 415.232C363.234 418.844 365.266 423.741 365.273 428.849V566.851C365.273 567.212 365.13 567.557 364.875 567.812C364.621 568.067 364.275 568.21 363.915 568.21Z" fill="white"/>
<path id="Vector_36" d="M404.654 590.237H437.012C438.201 590.237 439.341 589.765 440.181 588.924C441.022 588.083 441.494 586.943 441.494 585.754C441.494 580.87 439.555 576.186 436.102 572.732C432.649 569.277 427.965 567.336 423.081 567.334V567.334C418.196 567.334 413.51 569.275 410.056 572.729C406.601 576.184 404.661 580.869 404.661 585.754L404.654 590.237Z" fill="black"/>
<path id="Vector_37" d="M408.362 519.612C408.002 519.612 407.657 519.469 407.402 519.214C407.147 518.96 407.004 518.614 407.004 518.254V406.687C407.004 406.326 407.147 405.981 407.402 405.726C407.657 405.471 408.002 405.328 408.362 405.328C408.723 405.328 409.068 405.471 409.323 405.726C409.578 405.981 409.721 406.326 409.721 406.687V518.254C409.721 518.614 409.578 518.96 409.323 519.214C409.068 519.469 408.723 519.612 408.362 519.612Z" fill="white"/>
<path id="Vector_38" d="M365.008 386.256L403.526 331.151C403.526 331.151 436.129 329.983 448.307 305.43C448.725 304.661 448.992 303.819 449.095 302.95C449.242 301.649 449.026 300.333 448.47 299.147C448.976 298.555 449.431 297.921 449.828 297.252C450.725 295.737 451.594 294.25 450.671 292.497C450.299 291.731 449.646 291.137 448.847 290.841C448.049 290.545 447.166 290.569 446.385 290.908C447.2 289.319 447.186 287.682 446.337 286.738C445.99 286.356 445.531 286.092 445.026 285.984C442.642 285.42 439.98 288.116 439.219 288.864C436.149 291.9 430.124 296.763 421.349 303.487C421.349 303.487 433.901 294.066 430.179 289.312C429.058 287.892 426.953 288.775 425.723 289.475C423.455 290.779 422.035 293.075 420.133 294.773C417.661 296.877 414.744 298.396 411.602 299.215C406.617 300.621 401.557 300.634 396.755 302.74C394.576 303.685 392.522 304.896 390.642 306.347C388.441 308.065 387.117 310.469 385.113 312.269L354.195 339.974L365.008 386.256Z" fill="white"/>
<path id="Vector_39" d="M364.383 389.53L352.66 339.492L379.346 315.584C382.28 312.955 383.564 311.808 384.216 311.298L384.175 311.257C384.998 310.475 385.761 309.633 386.458 308.738C387.428 307.457 388.542 306.293 389.779 305.267C391.75 303.748 393.901 302.48 396.184 301.49C399.234 300.132 402.365 299.616 405.401 299.1C407.354 298.803 409.29 298.404 411.201 297.904C414.149 297.143 416.885 295.722 419.202 293.747C419.863 293.133 420.491 292.485 421.084 291.805C422.193 290.426 423.521 289.24 425.016 288.293C428.793 286.133 430.613 287.689 431.218 288.463C431.618 288.969 431.909 289.553 432.072 290.177C432.234 290.802 432.265 291.453 432.162 292.09C432.095 292.581 431.976 293.064 431.809 293.53C434.736 291.132 436.855 289.285 438.268 287.893C439.293 286.874 442.268 283.933 445.338 284.653C446.123 284.825 446.834 285.235 447.376 285.828C447.77 286.305 448.057 286.861 448.218 287.459C448.38 288.056 448.412 288.681 448.313 289.292C449.071 289.402 449.791 289.692 450.414 290.138C451.036 290.583 451.544 291.171 451.893 291.852C453.177 294.298 451.974 296.322 451.017 297.965C450.721 298.462 450.397 298.94 450.045 299.398C450.466 300.596 450.61 301.873 450.467 303.134C450.343 304.17 450.023 305.173 449.522 306.089C444.415 316.419 434.831 324.285 421.824 328.802C416.157 330.771 410.261 332.01 404.28 332.49L364.383 389.53ZM355.676 340.443L365.64 382.982L402.799 329.814H403.479C403.798 329.814 435.449 328.374 447.098 304.846C447.526 304.068 447.762 303.2 447.787 302.313C447.811 301.425 447.624 300.545 447.24 299.745L446.874 298.95L447.444 298.271C447.9 297.74 448.307 297.17 448.66 296.566C449.631 294.936 450.018 294.121 449.475 293.129C449.267 292.674 448.89 292.316 448.424 292.131C447.959 291.946 447.439 291.949 446.975 292.138L443.348 293.87L445.182 290.29C445.719 289.237 445.78 288.144 445.332 287.634C445.166 287.465 444.953 287.349 444.72 287.302C443.987 287.132 442.615 287.424 440.231 289.781L440.183 289.828C437.276 292.708 431.849 297.137 422.605 304.255L422.164 304.594L420.52 302.428L420.941 302.108C423.502 300.105 429.024 295.16 429.465 291.764C429.519 291.486 429.513 291.2 429.447 290.925C429.382 290.65 429.258 290.392 429.085 290.168C428.542 289.489 426.728 290.474 426.368 290.677C425.13 291.488 424.027 292.49 423.101 293.645C422.444 294.404 421.746 295.125 421.009 295.805C418.388 298.06 415.287 299.686 411.942 300.56C409.929 301.095 407.888 301.519 405.829 301.83C402.827 302.339 399.994 302.822 397.25 304.024C395.172 304.923 393.215 306.077 391.423 307.461C390.347 308.363 389.376 309.384 388.529 310.504C387.749 311.507 386.893 312.45 385.969 313.322L355.676 340.443Z" fill="black"/>
<path id="Vector_40" d="M448.212 299.453C448.212 299.453 440.537 310.945 433.12 314.511Z" fill="white"/>
<path id="Vector_41" d="M433.711 315.733L432.529 313.281C439.532 309.885 447.003 298.807 447.078 298.699L449.339 300.207C449.02 300.689 441.372 312.052 433.711 315.733Z" fill="black"/>
<path id="Vector_42" d="M446.385 290.901C446.385 290.901 435.707 305.165 428.97 307.916Z" fill="white"/>
<path id="Vector_43" d="M429.493 309.172L428.454 306.659C434.77 304.064 445.196 290.229 445.298 290.093L447.472 291.716C447.023 292.314 436.489 306.292 429.493 309.172Z" fill="black"/>
<path id="Vector_44" d="M293.066 234.296L308.104 232.734C314.958 232.021 321.249 228.616 325.594 223.267C329.938 217.917 331.981 211.062 331.272 204.207L329.818 190.263C329.506 187.243 328.602 184.315 327.158 181.646C325.713 178.977 323.757 176.618 321.4 174.705C319.043 172.793 316.332 171.363 313.423 170.499C310.513 169.635 307.462 169.353 304.443 169.669L292.747 170.885C284.285 171.767 276.519 175.972 271.156 182.577C265.793 189.182 263.272 197.646 264.145 206.109L264.682 211.257C265.391 218.076 268.78 224.334 274.103 228.655C279.426 232.975 286.247 235.005 293.066 234.296V234.296Z" fill="black"/>
<path id="Vector_45" d="M276.317 216.27C275.938 213.963 276.488 211.601 277.848 209.7C279.208 207.799 281.266 206.515 283.571 206.129C283.98 206.066 284.393 206.03 284.807 206.02L282.688 182.88L315.765 180.978C319.167 180.785 322.521 181.858 325.179 183.99C327.837 186.122 329.613 189.162 330.165 192.524L330.844 196.6C331.502 200.587 333.248 204.314 335.89 207.372V207.372C336.454 208 336.759 208.819 336.744 209.663C336.729 210.508 336.395 211.315 335.809 211.923L333.724 214.062L335.15 222.681C335.433 224.394 335.343 226.148 334.884 227.822C334.426 229.496 333.61 231.051 332.494 232.381C331.378 233.71 329.987 234.782 328.417 235.523C326.847 236.264 325.135 236.656 323.4 236.673L314.835 236.755L315.514 251.317L288.413 252.587C288.01 247.529 287.612 242.469 287.218 237.407C286.933 232.788 286.65 228.169 286.369 223.551C284.072 223.904 281.729 223.337 279.848 221.974C277.966 220.611 276.697 218.562 276.317 216.27V216.27Z" fill="white"/>
<path id="Vector_46" d="M287.198 253.993L285.88 237.488L285.12 224.998H284.997C282.597 224.983 280.28 224.12 278.453 222.563C276.626 221.006 275.408 218.855 275.013 216.487V216.487C274.576 213.83 275.209 211.109 276.774 208.917C278.338 206.725 280.706 205.242 283.36 204.791L281.234 181.603L315.738 179.62C319.472 179.404 323.154 180.577 326.074 182.913C328.995 185.249 330.948 188.583 331.557 192.273L332.236 196.349C332.857 200.092 334.502 203.591 336.991 206.455C337.786 207.341 338.216 208.495 338.193 209.685C338.17 210.875 337.697 212.012 336.869 212.867L335.259 214.511L336.577 222.451C336.894 224.357 336.794 226.309 336.284 228.173C335.775 230.037 334.868 231.768 333.625 233.248C332.383 234.728 330.835 235.922 329.087 236.746C327.339 237.571 325.434 238.007 323.502 238.025L316.35 238.093L317.029 252.608L287.198 253.993ZM287.673 221.955L288.611 237.305L289.704 251.154L314.156 250.013L313.477 235.396L323.447 235.301C324.988 235.288 326.507 234.941 327.9 234.284C329.293 233.628 330.527 232.677 331.518 231.498C332.509 230.319 333.232 228.939 333.639 227.453C334.046 225.968 334.126 224.412 333.873 222.892L332.332 213.594L334.899 210.965C335.243 210.597 335.435 210.111 335.435 209.607C335.435 209.102 335.243 208.617 334.899 208.248C332.085 204.996 330.222 201.032 329.513 196.79L328.834 192.715C328.337 189.686 326.735 186.949 324.338 185.032C321.94 183.115 318.918 182.155 315.854 182.336L284.162 184.157L286.288 207.345L284.834 207.379C284.484 207.387 284.135 207.417 283.788 207.467C281.937 207.891 280.316 209.004 279.256 210.58C278.196 212.156 277.776 214.077 278.081 215.952C278.386 217.826 279.394 219.514 280.9 220.672C282.405 221.83 284.296 222.372 286.186 222.186L287.673 221.955Z" fill="black"/>
<path id="Vector_47" d="M317.98 208.221C319.161 208.221 320.119 207.263 320.119 206.081C320.119 204.9 319.161 203.942 317.98 203.942C316.798 203.942 315.84 204.9 315.84 206.081C315.84 207.263 316.798 208.221 317.98 208.221Z" fill="black"/>
<path id="Vector_48" d="M286.471 219.828C285.744 219.826 285.034 219.617 284.423 219.224C283.811 218.831 283.325 218.272 283.021 217.613C282.717 216.953 282.608 216.22 282.707 215.5C282.805 214.78 283.108 214.104 283.578 213.55C284.049 212.997 284.668 212.589 285.362 212.376C286.056 212.162 286.797 212.152 287.498 212.346C288.198 212.539 288.828 212.929 289.314 213.469C289.8 214.009 290.121 214.677 290.241 215.393C290.324 215.887 290.309 216.393 290.196 216.881C290.083 217.369 289.875 217.83 289.584 218.237C289.292 218.644 288.922 218.99 288.497 219.253C288.071 219.517 287.597 219.694 287.103 219.774C286.894 219.812 286.683 219.831 286.471 219.828ZM286.471 214.925C286.41 214.918 286.348 214.918 286.288 214.925C286.146 214.948 286.01 214.998 285.888 215.074C285.765 215.15 285.659 215.249 285.575 215.366C285.491 215.482 285.431 215.614 285.399 215.754C285.366 215.894 285.361 216.039 285.384 216.181C285.443 216.456 285.603 216.699 285.832 216.86C285.949 216.944 286.081 217.004 286.221 217.037C286.361 217.07 286.506 217.074 286.648 217.05C286.933 217.002 287.187 216.843 287.355 216.607C287.523 216.372 287.591 216.079 287.544 215.794C287.522 215.652 287.471 215.515 287.395 215.393C287.32 215.27 287.22 215.164 287.103 215.081C286.917 214.966 286.702 214.912 286.485 214.925H286.471Z" fill="black"/>
<path id="Vector_49" d="M313.198 250.217C309.653 249.456 308.661 250.006 292.822 249.279L272.445 248.342C266.413 248.441 260.576 250.501 255.818 254.21C245.936 262.069 245.515 273.975 245.481 275.714C246.5 301.071 247.521 326.429 248.544 351.786L339.361 352.397C341.141 348.268 343.64 342.345 346.493 335.172C353.604 317.316 357.164 308.269 357.082 302.57C356.892 289.237 348.653 279.477 340.991 270.396C334.688 262.891 326.368 253.042 313.198 250.217Z" fill="#C7B8F8"/>
<path id="Vector_50" d="M288.998 217.445H288.95C288.772 217.438 288.596 217.397 288.434 217.323C288.271 217.249 288.125 217.144 288.003 217.013C287.881 216.883 287.787 216.729 287.724 216.562C287.662 216.395 287.633 216.217 287.639 216.039C287.661 215.412 287.518 214.791 287.225 214.236C286.932 213.682 286.499 213.215 285.968 212.88C285.456 212.586 284.882 212.416 284.293 212.383C283.703 212.35 283.114 212.455 282.572 212.69C282.245 212.842 281.871 212.858 281.532 212.735C281.194 212.611 280.918 212.358 280.765 212.031C280.613 211.704 280.597 211.33 280.721 210.991C280.844 210.653 281.097 210.377 281.424 210.224C282.376 209.8 283.415 209.61 284.455 209.67C285.495 209.731 286.505 210.039 287.401 210.571C288.336 211.159 289.1 211.982 289.617 212.959C290.133 213.935 290.383 215.03 290.342 216.134C290.33 216.483 290.183 216.815 289.933 217.059C289.682 217.303 289.347 217.441 288.998 217.445V217.445Z" fill="black"/>
<path id="Vector_51" d="M317.212 180.944C317.212 180.944 322.402 209.416 284.753 207.331L282.763 182.88L317.212 180.944Z" fill="black"/>
<path id="Vector_52" d="M314.475 235.389C314.597 238.106 314.724 240.823 314.855 243.54L299.342 236.632C299.233 236.586 299.143 236.503 299.087 236.398C299.031 236.293 299.014 236.173 299.037 236.056C299.06 235.94 299.122 235.835 299.214 235.759C299.305 235.683 299.42 235.641 299.539 235.64L314.475 235.389Z" fill="black"/>
<path id="Vector_53" d="M320.241 226.376C318.57 226.325 316.945 225.806 315.554 224.878C314.162 223.95 313.059 222.65 312.369 221.126C312.223 220.808 312.151 220.46 312.159 220.11C312.167 219.76 312.254 219.416 312.414 219.104C312.575 218.793 312.804 218.522 313.084 218.312C313.365 218.102 313.689 217.959 314.034 217.893L324.901 215.821C325.231 215.764 325.569 215.78 325.893 215.866C326.217 215.952 326.518 216.107 326.776 216.321C327.034 216.534 327.243 216.801 327.388 217.103C327.534 217.405 327.612 217.734 327.618 218.069C327.658 221.465 325.825 224.597 323.053 225.806C322.166 226.188 321.208 226.382 320.241 226.376ZM315.086 220.46C316.655 223.259 319.888 224.23 321.98 223.313C323.644 222.593 324.779 220.725 324.901 218.558L315.086 220.46Z" fill="black"/>
<path id="Vector_54" d="M380.216 323.68H326.762C321.446 323.68 317.137 327.989 317.137 333.304V386.758C317.137 392.074 321.446 396.383 326.762 396.383H380.216C385.531 396.383 389.84 392.074 389.84 386.758V333.304C389.84 327.989 385.531 323.68 380.216 323.68Z" fill="#FFC1EB"/>
<path id="Vector_55" d="M353.489 396.207C353.129 396.207 352.783 396.063 352.528 395.809C352.274 395.554 352.13 395.208 352.13 394.848V325.31C352.13 324.95 352.274 324.605 352.528 324.35C352.783 324.095 353.129 323.952 353.489 323.952C353.849 323.952 354.195 324.095 354.449 324.35C354.704 324.605 354.847 324.95 354.847 325.31V394.848C354.847 395.208 354.704 395.554 354.449 395.809C354.195 396.063 353.849 396.207 353.489 396.207Z" fill="#FB6D6D"/>
<path id="Vector_56" d="M316.509 242.773L286.456 244.369L287.037 255.309L317.09 253.713L316.509 242.773Z" fill="#C7B8F8"/>
<path id="Vector_57" d="M267.127 206.448C267.127 206.448 243.097 201.979 220.941 216.1C210.919 222.457 203.189 231.85 198.88 242.908C196.842 248.118 195.45 254.176 196.211 260.038C197.861 272.841 211.092 280.781 222.843 275.449C230.185 272.121 238.505 263.502 245.739 243.805C245.739 243.805 252.905 222.749 269.335 221.391L267.127 206.448Z" fill="black"/>
<path id="Vector_58" d="M366.256 279.683L299.317 313.776C297.542 314.68 296.836 316.852 297.74 318.627L301.408 325.829C302.312 327.604 304.484 328.31 306.259 327.406L373.198 293.313C374.973 292.409 375.679 290.238 374.775 288.463L371.107 281.26C370.203 279.486 368.031 278.779 366.256 279.683Z" fill="#FFC1EB"/>
<path id="Vector_59" d="M337.765 311.373L324.595 318.518C322.201 319.834 319.646 320.832 316.995 321.487C312.526 322.566 306.807 322.845 305.577 317.805C305.577 317.805 301.991 311.468 319.481 304.69C319.921 304.453 320.272 304.079 320.478 303.623C320.684 303.168 320.735 302.658 320.622 302.171C320.509 301.684 320.239 301.248 319.854 300.929C319.468 300.611 318.988 300.429 318.489 300.411C316.379 300.377 314.271 300.563 312.199 300.968C310.077 301.538 308.009 302.292 306.019 303.223C300.019 306.086 294.829 310.403 290.92 315.781C289.499 317.707 287.686 319.312 285.602 320.488L266.135 331.423C273.967 304.411 279.624 284.442 281.812 276.917C282.577 274.366 282.914 271.706 282.81 269.045C282.756 267.842 282.477 261.424 278.735 256.866C274.286 251.467 265.653 249.538 259.343 251.276C248.775 254.197 244.441 267.503 236.141 293.014C231.686 306.693 228.738 320.339 227.42 326.411C225.321 336.117 223.284 345.361 225.661 355.23C227.196 361.601 230.32 367.911 235.992 371.531C238.479 373.093 241.268 374.114 244.176 374.526C247.572 375.008 251.029 374.802 254.343 373.92C257.657 373.038 260.76 371.498 263.466 369.391L291.898 347.657C295.821 344.656 300.262 342.402 305 341.007L312.233 338.895C317.331 337.391 321.898 334.473 325.403 330.479L339.857 314.008C340.118 313.728 340.278 313.369 340.312 312.988C340.347 312.607 340.254 312.225 340.047 311.903C339.8 311.547 339.43 311.296 339.008 311.198C338.586 311.1 338.143 311.163 337.765 311.373Z" fill="white"/>
<path id="Vector_60" d="M247.735 376.163C246.473 376.163 245.213 376.068 243.966 375.878C240.868 375.438 237.898 374.348 235.252 372.679C228.616 368.42 225.647 361.003 224.33 355.535C221.905 345.449 223.909 336.184 226.028 326.37L226.089 326.112C228.445 314.795 231.367 303.603 234.844 292.579C243.402 266.273 247.701 253.069 258.976 249.959C265.225 248.227 274.639 249.755 279.774 255.99C283.285 260.255 284.033 265.954 284.168 268.97C284.288 271.776 283.932 274.582 283.116 277.27C282.307 280.061 281.024 284.537 279.339 290.44C276.582 300.05 272.88 312.996 268.363 328.598L284.922 319.279C286.841 318.197 288.508 316.72 289.813 314.946C293.846 309.373 299.219 304.907 305.434 301.959C307.498 300.998 309.641 300.218 311.839 299.629H311.955C314.122 299.206 316.328 299.013 318.536 299.052C319.336 299.079 320.104 299.37 320.721 299.879C321.338 300.387 321.769 301.086 321.948 301.865C322.127 302.645 322.043 303.461 321.71 304.188C321.377 304.915 320.813 305.512 320.105 305.885L319.963 305.953C310.196 309.688 307.615 313.207 306.895 314.952C306.728 315.291 306.63 315.659 306.608 316.036C306.586 316.413 306.64 316.79 306.766 317.146L306.854 317.309V317.465C307.622 320.624 310.929 321.541 316.635 320.141C319.175 319.512 321.622 318.555 323.916 317.296L337.099 310.177C337.736 309.805 338.486 309.674 339.211 309.811C339.936 309.948 340.587 310.343 341.044 310.922C341.501 311.502 341.733 312.227 341.697 312.964C341.661 313.701 341.36 314.4 340.849 314.932L326.429 331.369C322.752 335.559 317.961 338.621 312.614 340.199L305.367 342.338C300.777 343.684 296.474 345.862 292.672 348.764L264.247 370.498C259.508 374.136 253.71 376.125 247.735 376.163V376.163ZM264.145 252.01C262.648 251.999 261.157 252.188 259.71 252.573C249.848 255.29 245.698 268.039 237.439 293.421C233.991 304.363 231.094 315.471 228.758 326.703L228.697 326.954C226.659 336.463 224.703 345.429 226.985 354.91C228.188 359.896 230.857 366.634 236.732 370.403C239.057 371.868 241.666 372.824 244.387 373.208C247.601 373.654 250.872 373.451 254.006 372.613C257.141 371.774 260.075 370.316 262.637 368.325L291.062 346.59C295.119 343.487 299.712 341.157 304.613 339.716L311.86 337.577C316.714 336.147 321.062 333.367 324.398 329.562L338.858 313.084C338.919 313.026 338.959 312.95 338.974 312.867C338.988 312.784 338.977 312.698 338.94 312.623C338.879 312.553 338.794 312.507 338.702 312.493C338.61 312.48 338.516 312.499 338.437 312.548V312.548L325.254 319.666C322.756 321.034 320.091 322.075 317.327 322.763C307.689 325.086 305.027 320.991 304.307 318.219C303.778 316.912 303.778 315.451 304.307 314.144C305.706 310.239 310.617 306.618 318.903 303.392C319.071 303.3 319.202 303.154 319.276 302.977C319.35 302.801 319.362 302.605 319.311 302.421C319.273 302.219 319.165 302.037 319.006 301.906C318.847 301.776 318.647 301.706 318.441 301.708C316.447 301.68 314.456 301.858 312.498 302.237C310.472 302.782 308.497 303.503 306.596 304.391C300.78 307.152 295.757 311.339 291.993 316.562C290.458 318.642 288.502 320.375 286.254 321.649L263.894 334.228L264.818 331.036C269.755 314.001 273.783 299.949 276.717 289.692C278.409 283.783 279.692 279.3 280.501 276.523C281.226 274.113 281.545 271.599 281.445 269.085C281.329 266.409 280.684 261.369 277.668 257.715C274.469 253.823 268.995 252.01 264.145 252.01Z" fill="black"/>
<path id="Vector_61" d="M250.792 341.027C250.484 341.038 250.182 340.944 249.935 340.761C249.687 340.577 249.509 340.315 249.431 340.018C249.352 339.72 249.376 339.405 249.5 339.123C249.624 338.841 249.84 338.609 250.113 338.466L265.504 330.214C265.822 330.044 266.194 330.007 266.539 330.111C266.885 330.216 267.174 330.453 267.344 330.771C267.515 331.089 267.552 331.461 267.447 331.807C267.343 332.152 267.105 332.441 266.787 332.612L251.43 340.864C251.234 340.97 251.015 341.026 250.792 341.027Z" fill="black"/>
<path id="Vector_62" d="M456.967 110.428C453.622 110.428 450.352 109.436 447.571 107.578C444.79 105.719 442.622 103.078 441.342 99.9878C440.062 96.8974 439.727 93.4969 440.38 90.2162C441.032 86.9356 442.643 83.9221 445.008 81.5568C447.373 79.1916 450.387 77.5808 453.668 76.9283C456.948 76.2757 460.349 76.6106 463.439 77.8907C466.529 79.1707 469.171 81.3384 471.029 84.1197C472.887 86.9009 473.879 90.1707 473.879 93.5157C473.874 97.9995 472.09 102.298 468.92 105.469C465.749 108.639 461.451 110.423 456.967 110.428V110.428ZM456.967 79.3202C454.159 79.3202 451.415 80.1527 449.08 81.7125C446.746 83.2724 444.926 85.4894 443.852 88.0833C442.778 90.6772 442.496 93.5314 443.044 96.2851C443.592 99.0388 444.944 101.568 446.929 103.553C448.914 105.539 451.444 106.891 454.198 107.438C456.951 107.986 459.805 107.705 462.399 106.631C464.993 105.556 467.21 103.737 468.77 101.402C470.33 99.0679 471.162 96.3233 471.162 93.5157C471.159 89.7519 469.662 86.1433 467.001 83.4819C464.339 80.8205 460.731 79.3238 456.967 79.3202V79.3202Z" fill="#FFBB45"/>
<path id="Vector_63" d="M461.409 40.4488C461.409 37.9918 459.419 36 456.963 36C454.508 36 452.518 37.9918 452.518 40.4488V70.2119C452.518 72.6689 454.508 74.6607 456.963 74.6607C459.419 74.6607 461.409 72.6689 461.409 70.2119V40.4488Z" fill="black"/>
<path id="Vector_64" d="M456.26 63.8749C445.987 64.0264 435.944 66.9453 427.189 72.3242C418.435 77.7031 411.293 85.343 406.515 94.4394C406.353 94.7495 406.273 95.0962 406.284 95.446C406.295 95.7958 406.395 96.137 406.576 96.4366C406.757 96.7362 407.012 96.9841 407.317 97.1566C407.621 97.329 407.965 97.4202 408.315 97.4212H505.619C505.97 97.4208 506.315 97.3298 506.62 97.157C506.925 96.9841 507.181 96.7354 507.362 96.4348C507.543 96.1342 507.643 95.7919 507.653 95.4412C507.663 95.0904 507.582 94.743 507.419 94.4326C502.524 85.1287 495.16 77.3541 486.135 71.9632C477.109 66.5723 466.773 63.7736 456.26 63.8749Z" fill="#FFC1EB"/>
<path id="Vector_65" d="M427.081 88.5099C420.547 88.5099 415.229 84.1086 415.148 84.0407C414.872 83.8083 414.7 83.476 414.669 83.1168C414.639 82.7575 414.752 82.4009 414.984 82.1253C415.217 81.8497 415.549 81.6777 415.908 81.6471C416.268 81.6165 416.624 81.7299 416.9 81.9623V81.9623C417.321 82.3087 427.156 90.4049 435.517 82.0438L436.339 81.2152L437.283 81.8944C439.411 83.3416 441.763 84.4272 444.245 85.107C449.339 86.4655 453.632 85.4127 457.021 82.0302L457.822 81.2287L458.753 81.8672C459.16 82.1525 468.941 88.7137 475.625 82.0302L476.467 81.188L477.411 81.908C479.418 83.3373 481.655 84.4103 484.026 85.0799C488.883 86.4043 493.04 85.3719 496.388 82.0302C496.511 81.8936 496.661 81.7835 496.828 81.7066C496.995 81.6297 497.177 81.5875 497.36 81.5826C497.544 81.5778 497.727 81.6103 497.898 81.6784C498.069 81.7464 498.225 81.8484 498.355 81.9783C498.485 82.1082 498.588 82.2632 498.657 82.434C498.725 82.6047 498.759 82.7876 498.754 82.9716C498.75 83.1556 498.709 83.3367 498.632 83.5042C498.556 83.6716 498.446 83.8218 498.31 83.9456C490.16 92.1369 479.849 86.71 476.711 84.7131C470.598 89.8819 462.448 87.2805 458.135 84.7131C449.984 91.8856 439.796 86.6421 436.631 84.7131C434.043 87.1425 430.63 88.4994 427.081 88.5099V88.5099Z" fill="#FB6D6D"/>
<path id="Vector_66" d="M382.906 227.938C382.503 227.936 382.103 227.877 381.717 227.762C381.054 227.559 380.456 227.187 379.979 226.684C379.503 226.18 379.166 225.562 379 224.889L372.14 197.788C371.967 197.095 371.98 196.369 372.179 195.683C372.378 194.997 372.755 194.376 373.272 193.883C373.789 193.39 374.428 193.043 375.122 192.877C375.817 192.711 376.543 192.732 377.227 192.939L404.817 201.307C405.501 201.514 406.118 201.9 406.604 202.424C407.091 202.948 407.429 203.592 407.584 204.29C407.74 204.988 407.707 205.715 407.489 206.396C407.272 207.077 406.877 207.688 406.345 208.167L385.595 226.892C384.861 227.565 383.901 227.938 382.906 227.938V227.938ZM376.032 195.479C375.698 195.487 375.379 195.617 375.135 195.846C374.964 196.005 374.84 196.208 374.775 196.433C374.71 196.658 374.708 196.897 374.769 197.123L381.649 224.216C381.701 224.439 381.812 224.644 381.969 224.81C382.127 224.976 382.326 225.097 382.546 225.16C382.762 225.23 382.994 225.24 383.216 225.19C383.438 225.14 383.643 225.031 383.809 224.875L404.552 206.149C404.726 205.993 404.855 205.794 404.927 205.572C404.998 205.349 405.009 205.112 404.959 204.884C404.908 204.656 404.798 204.445 404.64 204.274C404.481 204.102 404.28 203.976 404.056 203.908L376.46 195.54C376.322 195.494 376.177 195.473 376.032 195.479V195.479Z" fill="#6DC8C2"/>
<path id="Vector_67" d="M411.446 277.12C420.085 277.12 427.088 270.117 427.088 261.478C427.088 252.839 420.085 245.836 411.446 245.836C402.807 245.836 395.804 252.839 395.804 261.478C395.804 270.117 402.807 277.12 411.446 277.12Z" fill="#FFC1EB"/>
<path id="Vector_68" d="M430.605 189.536L418.63 212.123C416.687 215.789 418.083 220.336 421.749 222.279L444.336 234.254C448.002 236.197 452.549 234.801 454.492 231.135L466.467 208.548C468.41 204.882 467.014 200.335 463.348 198.392L440.76 186.417C437.095 184.474 432.548 185.87 430.605 189.536Z" fill="#FFBB45"/>
<path id="Vector_69" d="M411.446 278.478C411.155 278.478 410.872 278.384 410.639 278.21C410.405 278.037 410.233 277.792 410.149 277.514C405.157 260.989 416.357 252.383 422.979 250.121C423.321 250.006 423.694 250.031 424.017 250.191C424.34 250.351 424.586 250.632 424.701 250.974C424.816 251.315 424.791 251.688 424.632 252.011C424.472 252.334 424.19 252.58 423.849 252.696C423.17 252.933 407.283 258.625 412.75 276.726C412.854 277.071 412.816 277.443 412.646 277.76C412.475 278.077 412.185 278.314 411.84 278.417C411.713 278.457 411.58 278.478 411.446 278.478V278.478Z" fill="#FB6D6D"/>
<path id="Vector_70" d="M398.629 271.755C398.365 271.754 398.106 271.675 397.885 271.529C397.664 271.383 397.491 271.176 397.386 270.933C397.282 270.69 397.25 270.421 397.296 270.161C397.342 269.9 397.463 269.658 397.644 269.466C400.246 266.749 401.502 263.91 401.38 261.071C401.19 256.69 397.767 253.599 397.733 253.599C397.59 253.484 397.472 253.341 397.386 253.18C397.3 253.018 397.247 252.84 397.231 252.657C397.216 252.475 397.237 252.291 397.295 252.116C397.352 251.942 397.444 251.782 397.565 251.644C397.686 251.506 397.834 251.394 397.999 251.315C398.165 251.236 398.345 251.192 398.528 251.184C398.711 251.176 398.894 251.206 399.066 251.271C399.237 251.336 399.394 251.435 399.526 251.562C399.702 251.711 403.839 255.392 404.09 260.942C404.253 264.555 402.732 268.06 399.614 271.354C399.485 271.483 399.332 271.586 399.163 271.655C398.993 271.723 398.812 271.757 398.629 271.755Z" fill="#FB6D6D"/>
<path id="Vector_71" d="M681.542 487.547H599.221C596.205 487.547 593.76 489.992 593.76 493.008V504.758C593.76 507.774 596.205 510.219 599.221 510.219H681.542C684.557 510.219 687.002 507.774 687.002 504.758V493.008C687.002 489.992 684.557 487.547 681.542 487.547Z" fill="#FFC1EB"/>
<path id="Vector_72" d="M599.303 510.592C599.091 510.592 598.883 510.541 598.694 510.446C598.506 510.35 598.342 510.212 598.216 510.042C598.109 509.9 598.031 509.737 597.987 509.564C597.943 509.392 597.933 509.212 597.958 509.035C597.983 508.858 598.043 508.689 598.134 508.535C598.225 508.382 598.345 508.247 598.488 508.14L610.924 498.862L598.474 489.245C598.189 489.025 598.002 488.701 597.956 488.344C597.909 487.986 598.006 487.625 598.226 487.34C598.446 487.054 598.77 486.868 599.127 486.821C599.485 486.775 599.846 486.872 600.131 487.092L615.414 498.903L600.118 510.321C599.883 510.497 599.597 510.592 599.303 510.592Z" fill="#FB6D6D"/>
<path id="Vector_73" d="M685.787 500.241H613.165C612.805 500.241 612.46 500.098 612.205 499.843C611.95 499.589 611.807 499.243 611.807 498.883C611.807 498.523 611.95 498.177 612.205 497.922C612.46 497.668 612.805 497.524 613.165 497.524H685.787C686.147 497.524 686.493 497.668 686.747 497.922C687.002 498.177 687.145 498.523 687.145 498.883C687.145 499.243 687.002 499.589 686.747 499.843C686.493 500.098 686.147 500.241 685.787 500.241Z" fill="#FB6D6D"/>
<path id="Vector_74" d="M692.389 510.266H584.367C579.498 510.266 575.551 514.213 575.551 519.083V574.683C575.551 579.552 579.498 583.499 584.367 583.499H692.389C697.258 583.499 701.205 579.552 701.205 574.683V519.083C701.205 514.213 697.258 510.266 692.389 510.266Z" fill="#6DC8C2"/>
<path id="Vector_75" d="M678.003 583.302C677.643 583.302 677.297 583.159 677.042 582.904C676.788 582.65 676.645 582.304 676.645 581.944V544.349C676.645 543.989 676.788 543.644 677.042 543.389C677.297 543.134 677.643 542.991 678.003 542.991C678.363 542.991 678.709 543.134 678.963 543.389C679.218 543.644 679.361 543.989 679.361 544.349V581.944C679.361 582.304 679.218 582.65 678.963 582.904C678.709 583.159 678.363 583.302 678.003 583.302Z" fill="black"/>
<path id="Vector_76" d="M604.281 521.494H585.949C583.901 521.494 582.241 523.154 582.241 525.202V534.562C582.241 536.61 583.901 538.27 585.949 538.27H604.281C606.329 538.27 607.99 536.61 607.99 534.562V525.202C607.99 523.154 606.329 521.494 604.281 521.494Z" fill="white"/>
<path id="Vector_77" d="M605.11 546.645H584.353C583.993 546.645 583.647 546.502 583.393 546.247C583.138 545.993 582.995 545.647 582.995 545.287C582.995 544.927 583.138 544.581 583.393 544.326C583.647 544.072 583.993 543.928 584.353 543.928H605.11C605.47 543.928 605.816 544.072 606.071 544.326C606.325 544.581 606.468 544.927 606.468 545.287C606.468 545.647 606.325 545.993 606.071 546.247C605.816 546.502 605.47 546.645 605.11 546.645Z" fill="black"/>
<path id="Vector_78" d="M599.622 552.989H584.353C583.993 552.989 583.647 552.846 583.393 552.591C583.138 552.336 582.995 551.991 582.995 551.631C582.995 551.27 583.138 550.925 583.393 550.67C583.647 550.415 583.993 550.272 584.353 550.272H599.622C599.982 550.272 600.328 550.415 600.583 550.67C600.837 550.925 600.98 551.27 600.98 551.631C600.98 551.991 600.837 552.336 600.583 552.591C600.328 552.846 599.982 552.989 599.622 552.989V552.989Z" fill="black"/>
<path id="Vector_79" d="M677.881 545.708C676.632 545.71 675.401 545.408 674.294 544.828C673.188 544.248 672.239 543.408 671.53 542.38L651.052 514.81C650.945 514.667 650.868 514.505 650.824 514.331C650.78 514.158 650.771 513.978 650.797 513.802C650.823 513.625 650.883 513.455 650.975 513.302C651.066 513.149 651.187 513.015 651.33 512.909C651.473 512.802 651.636 512.725 651.809 512.681C651.982 512.637 652.162 512.628 652.339 512.654C652.515 512.68 652.685 512.74 652.838 512.832C652.992 512.923 653.125 513.044 653.232 513.187L673.71 540.797C674.182 541.492 674.821 542.058 675.568 542.442C676.316 542.826 677.148 543.016 677.988 542.994C678.827 542.972 679.649 542.74 680.375 542.318C681.102 541.896 681.711 541.298 682.146 540.58L697.231 513.411C697.406 513.096 697.699 512.863 698.045 512.764C698.392 512.664 698.764 512.707 699.079 512.881C699.394 513.056 699.627 513.349 699.726 513.695C699.826 514.042 699.783 514.414 699.609 514.729L684.496 541.897C683.83 543.012 682.895 543.941 681.775 544.599C680.656 545.256 679.389 545.621 678.091 545.66L677.881 545.708Z" fill="black"/>
<path id="Vector_80" d="M649.584 583.982C649.224 583.982 648.879 583.838 648.624 583.584C648.369 583.329 648.226 582.983 648.226 582.623V521.494C647.927 511.795 654.339 509.73 654.645 509.649C654.983 509.563 655.341 509.611 655.644 509.782C655.948 509.953 656.175 510.234 656.277 510.568C656.379 510.901 656.349 511.261 656.193 511.573C656.037 511.885 655.767 512.125 655.439 512.243C655.215 512.318 650.685 513.9 650.943 521.453V582.623C650.943 582.983 650.8 583.329 650.545 583.584C650.29 583.838 649.945 583.982 649.584 583.982V583.982Z" fill="black"/>
<path id="Vector_81" d="M295.96 255.229C295.526 255.23 295.109 255.065 294.794 254.769C294.478 254.472 294.288 254.066 294.262 253.633L293.779 245.272C293.767 245.049 293.798 244.826 293.871 244.615C293.944 244.404 294.059 244.209 294.207 244.043C294.356 243.876 294.536 243.74 294.737 243.643C294.938 243.545 295.156 243.489 295.379 243.476C295.602 243.463 295.825 243.494 296.036 243.567C296.247 243.641 296.442 243.755 296.609 243.903C296.775 244.052 296.911 244.232 297.009 244.433C297.106 244.634 297.163 244.852 297.176 245.075L297.665 253.436C297.677 253.659 297.646 253.883 297.572 254.094C297.499 254.305 297.384 254.499 297.235 254.665C297.086 254.832 296.906 254.968 296.705 255.064C296.503 255.161 296.285 255.217 296.062 255.229H295.96Z" fill="black"/>
<path id="Vector_82" d="M306.725 254.672C306.293 254.671 305.878 254.505 305.564 254.209C305.249 253.912 305.06 253.507 305.034 253.076L304.552 244.708C304.527 244.258 304.681 243.816 304.982 243.479C305.283 243.143 305.704 242.94 306.155 242.915C306.605 242.89 307.047 243.044 307.383 243.345C307.72 243.646 307.923 244.067 307.948 244.518L308.43 252.879C308.456 253.328 308.303 253.77 308.003 254.106C307.704 254.442 307.283 254.646 306.834 254.672H306.725Z" fill="black"/>
</g>
</g>
</svg>
