<svg width="1000" height="1000" viewBox="0 0 1000 1000" fill="none" xmlns="http://www.w3.org/2000/svg">
<path d="M676.91 134.21L177 353.27C133.37 372.39 126.79 431.58 165.17 459.8L604.81 783.25C643.18 811.48 697.73 787.58 702.98 740.25L763.25 197.75C768.51 150.38 720.54 115.09 676.91 134.21Z" fill="#F6C453"/>
<path d="M840.32 807.44H109.69C109.16 807.44 108.651 807.229 108.276 806.854C107.901 806.479 107.69 805.97 107.69 805.44C107.69 804.91 107.901 804.401 108.276 804.026C108.651 803.651 109.16 803.44 109.69 803.44H840.32C840.85 803.44 841.359 803.651 841.734 804.026C842.109 804.401 842.32 804.91 842.32 805.44C842.32 805.97 842.109 806.479 841.734 806.854C841.359 807.229 840.85 807.44 840.32 807.44Z" fill="black"/>
<path d="M566.23 409.83L591.17 327.41C591.518 326.259 592.115 325.2 592.919 324.307C593.723 323.413 594.715 322.709 595.823 322.243C596.93 321.776 598.128 321.561 599.328 321.61C600.529 321.66 601.704 321.974 602.77 322.53L629.69 336.53C630.854 337.136 631.855 338.013 632.608 339.087C633.361 340.162 633.845 341.402 634.017 342.702C634.19 344.003 634.047 345.326 633.6 346.56C633.153 347.794 632.416 348.902 631.45 349.79L566.23 409.83Z" fill="#FF8A8A"/>
<path d="M559.84 406.6L631 362.3C632.105 361.613 633.35 361.183 634.644 361.043C635.937 360.902 637.245 361.055 638.472 361.489C639.698 361.923 640.812 362.628 641.729 363.551C642.646 364.473 643.344 365.591 643.77 366.82L653.21 394.15C653.658 395.448 653.792 396.833 653.6 398.193C653.408 399.552 652.896 400.846 652.106 401.969C651.316 403.092 650.271 404.011 649.057 404.651C647.842 405.291 646.493 405.633 645.12 405.65L559.84 406.6Z" fill="#FF8A8A"/>
<path d="M459.22 559.11C492.352 559.11 519.21 532.252 519.21 499.12C519.21 465.988 492.352 439.13 459.22 439.13C426.088 439.13 399.23 465.988 399.23 499.12C399.23 532.252 426.088 559.11 459.22 559.11Z" fill="black"/>
<path d="M638.62 610.87C673.259 610.87 701.34 582.968 701.34 548.55C701.34 514.132 673.259 486.23 638.62 486.23C603.981 486.23 575.9 514.132 575.9 548.55C575.9 582.968 603.981 610.87 638.62 610.87Z" fill="black"/>
<path d="M575.9 526.79C610.539 526.79 638.62 498.888 638.62 464.47C638.62 430.052 610.539 402.15 575.9 402.15C541.261 402.15 513.18 430.052 513.18 464.47C513.18 498.888 541.261 526.79 575.9 526.79Z" fill="black"/>
<path d="M520.8 454.46H482.68C473.296 454.46 464.004 452.612 455.335 449.02C446.666 445.429 438.789 440.165 432.154 433.529C425.519 426.893 420.256 419.016 416.666 410.346C413.076 401.676 411.229 392.384 411.23 383V334.24C411.243 323.031 415.706 312.286 423.638 304.365C431.569 296.445 442.321 291.997 453.53 292H505C522.441 292 539.167 298.928 551.499 311.261C563.832 323.593 570.76 340.319 570.76 357.76V404.59C570.755 411.145 569.458 417.635 566.945 423.689C564.431 429.743 560.749 435.243 556.11 439.874C551.47 444.505 545.964 448.176 539.906 450.679C533.847 453.182 527.355 454.467 520.8 454.46Z" fill="black"/>
<path d="M427 308.7C427 308.7 404.38 312.04 398.44 359.88C397.738 365.724 395.215 371.199 391.23 375.53L387.59 379.47C386.672 380.462 386.15 381.756 386.122 383.106C386.095 384.457 386.564 385.772 387.44 386.8L392.37 392.6L389.88 423.2C389.88 423.2 384.88 455.81 423.27 454.8H447.69V488.63H524.44V430.48C524.44 430.48 541.93 427.48 545.11 410.26C545.913 405.956 545.731 401.525 544.578 397.301C543.424 393.077 541.329 389.169 538.45 385.87C532.72 379.38 522.62 373.87 505.99 381.63C506 381.63 439.94 394.89 427 308.7Z" fill="white"/>
<path d="M519.21 417.65C517.628 417.65 516.081 417.181 514.765 416.302C513.45 415.423 512.424 414.173 511.819 412.711C511.213 411.25 511.055 409.641 511.364 408.089C511.672 406.537 512.434 405.112 513.553 403.993C514.672 402.874 516.097 402.112 517.649 401.804C519.201 401.495 520.81 401.654 522.271 402.259C523.733 402.865 524.983 403.89 525.862 405.205C526.741 406.521 527.21 408.068 527.21 409.65C527.21 411.772 526.367 413.807 524.867 415.307C523.367 416.807 521.332 417.65 519.21 417.65ZM519.21 405.59C518.419 405.59 517.645 405.825 516.988 406.264C516.33 406.704 515.817 407.328 515.514 408.059C515.212 408.79 515.132 409.594 515.287 410.37C515.441 411.146 515.822 411.859 516.382 412.418C516.941 412.978 517.654 413.359 518.43 413.513C519.206 413.668 520.01 413.588 520.741 413.286C521.472 412.983 522.096 412.47 522.536 411.812C522.975 411.155 523.21 410.381 523.21 409.59C523.21 408.529 522.789 407.512 522.038 406.762C521.288 406.011 520.271 405.59 519.21 405.59Z" fill="black"/>
<path d="M513.18 411.62C512.66 411.62 512.16 411.418 511.787 411.056C511.413 410.693 511.196 410.2 511.18 409.68C511.04 405.55 512.27 402.21 514.85 399.75C519.97 394.87 528.52 395.49 528.85 395.52C529.38 395.561 529.873 395.811 530.219 396.215C530.565 396.62 530.736 397.145 530.695 397.675C530.654 398.205 530.404 398.698 530 399.044C529.595 399.39 529.07 399.561 528.54 399.52C528.47 399.52 521.38 399.02 517.54 402.68C515.81 404.34 515.02 406.59 515.12 409.57C515.129 409.834 515.086 410.096 514.994 410.343C514.901 410.59 514.761 410.816 514.58 411.009C514.4 411.201 514.184 411.356 513.943 411.464C513.703 411.573 513.443 411.632 513.18 411.64V411.62Z" fill="black"/>
<path d="M435.05 381.57C437.662 381.57 439.78 379.452 439.78 376.84C439.78 374.228 437.662 372.11 435.05 372.11C432.438 372.11 430.32 374.228 430.32 376.84C430.32 379.452 432.438 381.57 435.05 381.57Z" fill="black"/>
<path d="M418.44 421.46C416.514 421.467 414.606 421.087 412.83 420.34C407.08 417.91 403.22 411.5 403.23 404.4C403.232 403.805 403.365 403.217 403.619 402.678C403.872 402.139 404.241 401.663 404.698 401.282C405.155 400.9 405.691 400.624 406.266 400.472C406.842 400.319 407.444 400.295 408.03 400.4L431.88 404.66C432.49 404.773 433.066 405.022 433.565 405.39C434.065 405.757 434.474 406.233 434.763 406.782C435.052 407.331 435.212 407.938 435.233 408.558C435.253 409.177 435.132 409.794 434.88 410.36C431.82 417.16 425.05 421.46 418.44 421.46ZM407.31 404.29C407.298 404.319 407.298 404.351 407.31 404.38C407.31 409.9 410.18 414.82 414.47 416.64C421.05 419.42 428.63 414.64 431.32 408.64L431.26 408.52L407.4 404.26L407.31 404.29Z" fill="black"/>
<path d="M447.06 454.84H483.73C484.055 454.843 484.369 454.956 484.62 455.163C484.871 455.369 485.044 455.655 485.11 455.974C485.175 456.292 485.13 456.623 484.98 456.912C484.831 457.2 484.588 457.429 484.29 457.56L447.06 473.46V454.84Z" fill="black"/>
<path d="M447.06 487.85C447.052 486.026 447.631 484.248 448.712 482.779C449.792 481.309 451.317 480.226 453.06 479.69C454.394 479.286 455.764 479.012 457.15 478.87C462.388 478.385 467.635 479.685 472.04 482.56C475.718 479.71 480.237 478.158 484.89 478.148C489.543 478.137 494.069 479.667 497.76 482.5C501.485 479.999 505.836 478.593 510.32 478.44C513.133 478.362 515.937 478.789 518.6 479.7C520.259 480.28 521.696 481.361 522.712 482.795C523.728 484.228 524.273 485.943 524.27 487.7V505.2H447.06V487.85Z" fill="#6DC8C2"/>
<path d="M744.77 740.3L303.52 739.93L323.08 560.86C324.935 543.89 332.979 528.198 345.675 516.786C358.372 505.374 374.829 499.042 391.9 499L574.31 498.54C595.592 498.489 616.404 504.796 634.077 516.653C651.75 528.511 665.478 545.378 673.5 565.09C710.5 650.17 737.27 712.29 740.19 719.66C741.58 723.274 742.693 726.988 743.52 730.77C744.169 733.912 744.587 737.097 744.77 740.3Z" fill="#6DC8C2"/>
<path d="M611.27 740.07H385.09V586.78H555.78C558.112 586.78 560.382 587.527 562.259 588.911C564.136 590.294 565.52 592.243 566.21 594.47L611.27 740.07Z" fill="black"/>
<path d="M555.75 588.78C555.274 588.787 554.81 588.624 554.444 588.319C554.077 588.015 553.831 587.59 553.75 587.12C553.19 583.81 540.32 506.01 567.17 496.66C567.671 496.485 568.222 496.516 568.7 496.747C569.178 496.978 569.545 497.389 569.72 497.89C569.895 498.391 569.864 498.942 569.633 499.42C569.402 499.898 568.991 500.265 568.49 500.44C548.82 507.28 554.03 564.85 557.7 586.44C557.744 586.699 557.737 586.965 557.679 587.222C557.62 587.478 557.512 587.721 557.359 587.935C557.207 588.15 557.014 588.332 556.791 588.472C556.568 588.612 556.32 588.706 556.06 588.75C555.958 588.768 555.854 588.778 555.75 588.78Z" fill="black"/>
<path d="M390.09 588.78C389.639 588.781 389.201 588.629 388.847 588.35C388.493 588.07 388.244 587.679 388.14 587.24C382.918 565.471 382.777 542.792 387.73 520.96C389.526 513.187 391.974 505.58 395.05 498.22C395.264 497.745 395.655 497.372 396.139 497.181C396.623 496.99 397.163 496.995 397.644 497.195C398.125 497.396 398.508 497.776 398.713 498.255C398.917 498.734 398.927 499.274 398.74 499.76C395.754 506.914 393.375 514.307 391.63 521.86C386.813 543.096 386.953 565.157 392.04 586.33C392.099 586.586 392.107 586.851 392.064 587.111C392.021 587.37 391.927 587.618 391.788 587.841C391.648 588.064 391.466 588.257 391.252 588.41C391.038 588.562 390.796 588.671 390.54 588.73C390.393 588.766 390.242 588.783 390.09 588.78Z" fill="black"/>
<path d="M428.7 730.3C415.158 729.408 401.567 731.021 388.61 735.06C340.4 750.25 319.01 794.77 314.47 804.85L428.7 805.44V730.3Z" fill="white"/>
<path d="M430.7 807.45L311.38 806.83L312.64 804.03C320.1 787.51 342.36 747.54 388.01 733.15C401.199 729.037 415.034 727.393 428.82 728.3L430.7 728.42V807.45ZM317.6 802.87L426.7 803.43V732.19C414.018 731.573 401.326 733.201 389.21 737C347.5 750.11 325.93 785.5 317.6 802.87Z" fill="black"/>
<path d="M659.18 825.89H442.58C439.275 825.891 436.002 825.242 432.949 823.978C429.895 822.714 427.12 820.861 424.783 818.524C422.445 816.188 420.591 813.414 419.326 810.361C418.061 807.307 417.41 804.035 417.41 800.73V759.2C417.413 744.383 423.3 730.174 433.777 719.697C444.254 709.22 458.463 703.333 473.28 703.33H707.8C717.613 703.33 727.024 707.228 733.963 714.167C740.902 721.106 744.8 730.517 744.8 740.33C744.796 751.57 742.578 762.699 738.273 773.082C733.968 783.464 727.661 792.898 719.71 800.843C711.76 808.788 702.322 815.089 691.936 819.386C681.55 823.684 670.42 825.894 659.18 825.89Z" fill="#6DC8C2"/>
<path d="M644.5 703.32H590.2C589.67 703.32 589.161 703.109 588.786 702.734C588.411 702.359 588.2 701.851 588.2 701.32C588.2 700.79 588.411 700.281 588.786 699.906C589.161 699.531 589.67 699.32 590.2 699.32H644.5C645.03 699.32 645.539 699.531 645.914 699.906C646.289 700.281 646.5 700.79 646.5 701.32C646.5 701.851 646.289 702.359 645.914 702.734C645.539 703.109 645.03 703.32 644.5 703.32Z" fill="black"/>
<path d="M581.8 412.57C578.926 412.57 576.116 411.718 573.725 410.122C571.335 408.525 569.471 406.256 568.37 403.601C567.268 400.946 566.979 398.024 567.537 395.204C568.096 392.385 569.478 389.794 571.508 387.759C573.539 385.725 576.127 384.337 578.945 383.773C581.764 383.209 584.686 383.492 587.343 384.588C590.001 385.684 592.274 387.543 593.875 389.93C595.476 392.317 596.334 395.126 596.34 398C596.343 399.912 595.969 401.805 595.239 403.572C594.51 405.339 593.439 406.945 592.089 408.298C590.739 409.651 589.135 410.725 587.37 411.458C585.604 412.191 583.712 412.569 581.8 412.57ZM581.8 387.49C579.714 387.49 577.675 388.109 575.941 389.268C574.207 390.428 572.856 392.076 572.059 394.003C571.263 395.931 571.056 398.052 571.465 400.097C571.874 402.143 572.881 404.021 574.358 405.494C575.835 406.966 577.716 407.968 579.762 408.371C581.809 408.774 583.929 408.561 585.854 407.759C587.78 406.957 589.424 405.601 590.578 403.864C591.733 402.127 592.346 400.086 592.34 398C592.329 395.211 591.215 392.539 589.239 390.569C587.264 388.6 584.589 387.493 581.8 387.49Z" fill="black"/>
<path d="M397.9 588.78C397.37 588.78 396.861 588.569 396.486 588.194C396.111 587.819 395.9 587.31 395.9 586.78C395.64 546.87 363 546 361.63 546C361.1 546 360.591 545.789 360.216 545.414C359.841 545.039 359.63 544.53 359.63 544C359.63 543.47 359.841 542.961 360.216 542.586C360.591 542.211 361.1 542 361.63 542C362.01 542 399.57 542.87 399.86 586.79C399.86 587.32 399.649 587.829 399.274 588.204C398.899 588.579 398.39 588.79 397.86 588.79L397.9 588.78Z" fill="black"/>
<path d="M514.82 501.12H452.82C452.29 501.12 451.781 500.909 451.406 500.534C451.031 500.159 450.82 499.65 450.82 499.12C450.82 498.59 451.031 498.081 451.406 497.706C451.781 497.331 452.29 497.12 452.82 497.12H514.82C515.351 497.12 515.859 497.331 516.234 497.706C516.609 498.081 516.82 498.59 516.82 499.12C516.82 499.65 516.609 500.159 516.234 500.534C515.859 500.909 515.351 501.12 514.82 501.12Z" fill="black"/>
<path d="M456.06 818.12C455.53 818.12 455.021 817.909 454.646 817.534C454.271 817.159 454.06 816.65 454.06 816.12V725.4C454.06 724.87 454.271 724.361 454.646 723.986C455.021 723.611 455.53 723.4 456.06 723.4C456.59 723.4 457.099 723.611 457.474 723.986C457.849 724.361 458.06 724.87 458.06 725.4V816.12C458.06 816.65 457.849 817.159 457.474 817.534C457.099 817.909 456.59 818.12 456.06 818.12Z" fill="black"/>
<path d="M155.82 715.89C155.41 715.891 155.01 715.765 154.674 715.531C154.338 715.297 154.081 714.965 153.94 714.58C142.34 682.94 118.36 657.25 118.12 657C117.755 656.614 117.559 656.099 117.574 655.568C117.589 655.038 117.814 654.535 118.2 654.17C118.586 653.805 119.101 653.609 119.632 653.624C120.162 653.639 120.665 653.864 121.03 654.25C121.27 654.51 145.81 680.77 157.7 713.25C157.881 713.747 157.857 714.296 157.634 714.776C157.411 715.256 157.007 715.627 156.51 715.81C156.287 715.879 156.053 715.907 155.82 715.89Z" fill="black"/>
<path d="M167.14 719.15C166.61 719.15 166.101 718.939 165.726 718.564C165.351 718.189 165.14 717.68 165.14 717.15V689.76C165.14 689.23 165.351 688.721 165.726 688.346C166.101 687.971 166.61 687.76 167.14 687.76C167.67 687.76 168.179 687.971 168.554 688.346C168.929 688.721 169.14 689.23 169.14 689.76V717.15C169.14 717.68 168.929 718.189 168.554 718.564C168.179 718.939 167.67 719.15 167.14 719.15Z" fill="black"/>
<path d="M226.07 758.34C226.067 751.793 223.465 745.514 218.836 740.884C214.206 736.255 207.927 733.653 201.38 733.65H195.88V715H127.82V733.66H122.32C115.772 733.66 109.492 736.261 104.862 740.892C100.231 745.522 97.63 751.802 97.63 758.35C97.638 764.892 100.243 771.163 104.873 775.786C109.502 780.408 115.778 783.003 122.32 783C119.078 782.999 115.868 783.636 112.872 784.876C109.877 786.115 107.155 787.933 104.862 790.225C102.569 792.517 100.751 795.238 99.5096 798.233C98.2687 801.228 97.63 804.438 97.63 807.68C97.6287 810.923 98.2664 814.134 99.5067 817.13C100.747 820.126 102.566 822.848 104.859 825.141C107.152 827.434 109.874 829.253 112.87 830.493C115.866 831.734 119.077 832.371 122.32 832.37H201.38C207.928 832.37 214.208 829.769 218.838 825.138C223.469 820.508 226.07 814.228 226.07 807.68C226.067 801.134 223.465 794.856 218.835 790.228C214.205 785.6 207.926 783 201.38 783C207.923 783 214.198 780.403 218.828 775.779C223.457 771.155 226.062 764.883 226.07 758.34Z" fill="#6DC8C2"/>
<path d="M202.42 785.14H174.53C174 785.14 173.491 784.929 173.116 784.554C172.741 784.179 172.53 783.67 172.53 783.14C172.53 782.61 172.741 782.101 173.116 781.726C173.491 781.351 174 781.14 174.53 781.14H202.42C202.95 781.14 203.459 781.351 203.834 781.726C204.209 782.101 204.42 782.61 204.42 783.14C204.42 783.67 204.209 784.179 203.834 784.554C203.459 784.929 202.95 785.14 202.42 785.14Z" fill="black"/>
<path d="M135.44 785H120.84C120.31 785 119.801 784.789 119.426 784.414C119.051 784.039 118.84 783.53 118.84 783C118.84 782.47 119.051 781.961 119.426 781.586C119.801 781.211 120.31 781 120.84 781H135.44C135.97 781 136.479 781.211 136.854 781.586C137.229 781.961 137.44 782.47 137.44 783C137.44 783.53 137.229 784.039 136.854 784.414C136.479 784.789 135.97 785 135.44 785Z" fill="black"/>
<path d="M161.86 720.8C180.997 720.8 196.51 717.568 196.51 713.58C196.51 709.593 180.997 706.36 161.86 706.36C142.723 706.36 127.21 709.593 127.21 713.58C127.21 717.568 142.723 720.8 161.86 720.8Z" fill="black"/>
<path d="M167.14 689.76C176.17 689.76 183.49 682.44 183.49 673.41C183.49 664.38 176.17 657.06 167.14 657.06C158.11 657.06 150.79 664.38 150.79 673.41C150.79 682.44 158.11 689.76 167.14 689.76Z" fill="#FFBB45"/>
<path d="M113.69 666.46C123.366 666.46 131.21 658.616 131.21 648.94C131.21 639.264 123.366 631.42 113.69 631.42C104.014 631.42 96.17 639.264 96.17 648.94C96.17 658.616 104.014 666.46 113.69 666.46Z" fill="#FFBB45"/>
<g filter="url(#filter0_d_11_469)">
<path fill-rule="evenodd" clip-rule="evenodd" d="M260.221 415.164C259.065 410.283 262.086 405.388 266.968 404.232C271.85 403.076 276.744 406.096 277.9 410.978L280.433 421.673C279.29 416.798 282.309 411.915 287.184 410.761C292.066 409.605 296.96 412.625 298.116 417.507L309.561 465.843C309.605 465.879 309.648 465.915 309.691 465.951L311.614 441.403C312.008 436.369 316.394 432.754 321.411 433.329C326.427 433.904 330.174 438.451 329.78 443.485L325.561 497.364C327.04 517.95 314.324 536.89 294.715 541.533C272.796 546.723 250.565 532.084 245.061 508.836C244.911 508.205 244.776 507.575 244.654 506.945C244.563 506.676 244.484 506.401 244.417 506.119L230.3 446.497C229.144 441.615 232.165 436.721 237.047 435.565C241.921 434.41 246.808 437.42 247.974 442.289L244.717 428.535C243.561 423.653 246.582 418.758 251.463 417.602C256.345 416.446 261.24 419.467 262.396 424.349L270.51 458.617L260.221 415.164Z" fill="white"/>
<path d="M236.866 435.607V435.607C241.848 434.428 246.842 437.51 248.022 442.491L255.94 475.931" stroke="black" stroke-width="4"/>
<path d="M321.376 433.379V433.379C326.246 433.925 329.892 438.329 329.52 443.215L325.746 492.787" stroke="black" stroke-width="4"/>
<path d="M251.283 417.645V417.645C256.265 416.465 261.259 419.548 262.439 424.529L273.48 471.16" stroke="black" stroke-width="4"/>
<path d="M266.732 404.288V404.288C271.775 403.094 276.83 406.213 278.024 411.256L291.126 466.59" stroke="black" stroke-width="4"/>
<path d="M287.094 411.186V411.186C292.076 410.007 297.07 413.089 298.25 418.07L308.834 462.773" stroke="black" stroke-width="4"/>
<path d="M325.429 491.018C327.446 515.154 322.415 527.574 305.699 536.857C300.154 539.937 293.963 541.78 287.642 542.307C271.14 543.684 259.21 538.32 246.197 513.636" stroke="black" stroke-width="4"/>
<path d="M333.812 804.141C324.949 805.515 315.903 805.13 307.189 803.008C298.475 800.885 290.264 797.067 283.026 791.771C275.787 786.475 269.663 779.805 265.003 772.142C260.343 764.479 257.237 755.973 255.865 747.11L228.377 569.739C226.802 559.552 229.336 549.157 235.423 540.839C241.51 532.52 250.651 526.959 260.837 525.378L319.006 516.37C329.186 514.802 339.572 517.34 347.881 523.427C356.19 529.513 361.742 538.65 363.316 548.829L390.843 726.194C392.217 735.057 391.832 744.103 389.709 752.817C387.587 761.531 383.769 769.742 378.473 776.98C373.177 784.218 366.507 790.343 358.844 795.003C351.181 799.663 342.675 802.768 333.812 804.141Z" fill="#6DC8C2"/>
<path d="M340.763 551.163L251.432 566.914C250.909 567.006 250.372 566.887 249.937 566.583C249.503 566.279 249.207 565.814 249.115 565.292C249.023 564.77 249.142 564.232 249.446 563.797C249.75 563.363 250.215 563.067 250.737 562.975L340.069 547.223C340.591 547.131 341.129 547.25 341.563 547.555C341.998 547.859 342.294 548.323 342.386 548.846C342.478 549.368 342.359 549.906 342.054 550.34C341.75 550.775 341.286 551.07 340.763 551.163Z" fill="black"/>
</g>
<defs>
<filter id="filter0_d_11_469" x="226.054" y="403.985" width="107.755" height="146.593" filterUnits="userSpaceOnUse" color-interpolation-filters="sRGB">
<feFlood flood-opacity="0" result="BackgroundImageFix"/>
<feColorMatrix in="SourceAlpha" type="matrix" values="0 0 0 0 0 0 0 0 0 0 0 0 0 0 0 0 0 0 127 0" result="hardAlpha"/>
<feOffset dy="4"/>
<feGaussianBlur stdDeviation="2"/>
<feComposite in2="hardAlpha" operator="out"/>
<feColorMatrix type="matrix" values="0 0 0 0 0 0 0 0 0 0 0 0 0 0 0 0 0 0 0.25 0"/>
<feBlend mode="normal" in2="BackgroundImageFix" result="effect1_dropShadow_11_469"/>
<feBlend mode="normal" in="SourceGraphic" in2="effect1_dropShadow_11_469" result="shape"/>
</filter>
</defs>
</svg>
